<svg xmlns="http://www.w3.org/2000/svg" width="384" viewBox="0 0 384 384" height="384" version="1.0"><defs><clipPath id="a"><path d="M 221 210 L 374.597656 210 L 374.597656 215 L 221 215 Z M 221 210"/></clipPath><clipPath id="b"><path d="M 9.347656 112 L 138 112 L 138 350.507812 L 9.347656 350.507812 Z M 9.347656 112"/></clipPath><clipPath id="c"><path d="M 39 33.257812 L 108 33.257812 L 108 70 L 39 70 Z M 39 33.257812"/></clipPath></defs><path fill="#FF6347" d="M 304.320312 94.925781 C 304.320312 95.25 304.289062 95.570312 304.222656 95.890625 C 304.160156 96.207031 304.066406 96.515625 303.941406 96.816406 C 303.820312 97.113281 303.667969 97.398438 303.488281 97.667969 C 303.308594 97.9375 303.101562 98.1875 302.875 98.414062 C 302.644531 98.644531 302.394531 98.847656 302.125 99.027344 C 301.855469 99.207031 301.570312 99.359375 301.273438 99.484375 C 300.972656 99.609375 300.664062 99.703125 300.347656 99.765625 C 300.027344 99.828125 299.707031 99.859375 299.382812 99.859375 C 299.058594 99.859375 298.738281 99.828125 298.421875 99.765625 C 298.101562 99.703125 297.792969 99.609375 297.496094 99.484375 C 297.195312 99.359375 296.910156 99.207031 296.640625 99.027344 C 296.371094 98.847656 296.125 98.644531 295.894531 98.414062 C 295.664062 98.1875 295.460938 97.9375 295.28125 97.667969 C 295.101562 97.398438 294.949219 97.113281 294.824219 96.816406 C 294.699219 96.515625 294.605469 96.207031 294.542969 95.890625 C 294.480469 95.570312 294.449219 95.25 294.449219 94.925781 C 294.449219 94.601562 294.480469 94.28125 294.542969 93.964844 C 294.605469 93.648438 294.699219 93.339844 294.824219 93.039062 C 294.949219 92.742188 295.101562 92.457031 295.28125 92.1875 C 295.460938 91.917969 295.664062 91.667969 295.894531 91.441406 C 296.125 91.210938 296.371094 91.007812 296.640625 90.828125 C 296.910156 90.648438 297.195312 90.496094 297.496094 90.371094 C 297.792969 90.246094 298.101562 90.152344 298.421875 90.089844 C 298.738281 90.027344 299.058594 89.996094 299.382812 89.996094 C 299.707031 89.996094 300.027344 90.027344 300.347656 90.089844 C 300.664062 90.152344 300.972656 90.246094 301.273438 90.371094 C 301.570312 90.496094 301.855469 90.648438 302.125 90.828125 C 302.394531 91.007812 302.644531 91.210938 302.875 91.441406 C 303.101562 91.667969 303.308594 91.917969 303.488281 92.1875 C 303.667969 92.457031 303.820312 92.742188 303.941406 93.039062 C 304.066406 93.339844 304.160156 93.648438 304.222656 93.964844 C 304.289062 94.28125 304.320312 94.601562 304.320312 94.925781 Z M 304.320312 94.925781"/><path fill="#FF6347" d="M 308.46875 76.050781 L 313.183594 74.222656 L 344.820312 155.644531 L 340.101562 157.476562 Z M 308.46875 76.050781"/><path fill="#FF6347" d="M 193.175781 163.140625 C 193.175781 163.507812 193.136719 163.867188 193.066406 164.226562 C 192.996094 164.585938 192.890625 164.933594 192.75 165.269531 C 192.609375 165.609375 192.4375 165.929688 192.234375 166.234375 C 192.03125 166.535156 191.800781 166.816406 191.542969 167.074219 C 191.285156 167.332031 191.003906 167.5625 190.699219 167.765625 C 190.394531 167.96875 190.074219 168.140625 189.738281 168.28125 C 189.398438 168.421875 189.050781 168.527344 188.695312 168.597656 C 188.335938 168.667969 187.972656 168.703125 187.609375 168.703125 C 187.242188 168.703125 186.878906 168.667969 186.523438 168.597656 C 186.164062 168.527344 185.816406 168.421875 185.476562 168.28125 C 185.140625 168.140625 184.820312 167.96875 184.515625 167.765625 C 184.210938 167.5625 183.929688 167.332031 183.671875 167.074219 C 183.414062 166.816406 183.183594 166.535156 182.980469 166.234375 C 182.777344 165.929688 182.605469 165.609375 182.464844 165.269531 C 182.324219 164.933594 182.21875 164.585938 182.148438 164.226562 C 182.078125 163.867188 182.042969 163.507812 182.042969 163.140625 C 182.042969 162.777344 182.078125 162.414062 182.148438 162.054688 C 182.21875 161.699219 182.324219 161.351562 182.464844 161.011719 C 182.605469 160.675781 182.777344 160.355469 182.980469 160.050781 C 183.183594 159.746094 183.414062 159.464844 183.671875 159.207031 C 183.929688 158.949219 184.210938 158.71875 184.515625 158.515625 C 184.820312 158.3125 185.140625 158.140625 185.476562 158.003906 C 185.816406 157.863281 186.164062 157.757812 186.523438 157.6875 C 186.878906 157.613281 187.242188 157.578125 187.609375 157.578125 C 187.972656 157.578125 188.335938 157.613281 188.695312 157.6875 C 189.050781 157.757812 189.398438 157.863281 189.738281 158.003906 C 190.074219 158.140625 190.394531 158.3125 190.699219 158.515625 C 191.003906 158.71875 191.285156 158.949219 191.542969 159.207031 C 191.800781 159.464844 192.03125 159.746094 192.234375 160.050781 C 192.4375 160.355469 192.609375 160.675781 192.75 161.011719 C 192.890625 161.351562 192.996094 161.699219 193.066406 162.054688 C 193.136719 162.414062 193.175781 162.777344 193.175781 163.140625 Z M 193.175781 163.140625"/><path fill="#FF6347" d="M 143.351562 230.085938 C 144.757812 228.746094 146.65625 227.921875 148.753906 227.921875 C 153.082031 227.921875 156.597656 231.433594 156.597656 235.761719 C 156.597656 240.09375 153.082031 243.601562 148.753906 243.601562 C 144.417969 243.601562 140.90625 240.089844 140.90625 235.761719 C 140.90625 235.386719 140.941406 235.019531 140.992188 234.65625 C 139.667969 236.507812 138.003906 238.097656 136.085938 239.324219 C 134.789062 241.863281 132.152344 243.601562 129.109375 243.601562 C 127.34375 243.601562 125.71875 243.011719 124.40625 242.027344 C 121.503906 241.707031 118.828125 240.691406 116.523438 239.15625 C 116.300781 239.625 116.03125 240.066406 115.71875 240.476562 L 115.71875 249.628906 L 210.886719 249.628906 C 218.429688 249.628906 224.550781 243.515625 224.550781 235.972656 C 224.550781 228.429688 218.433594 222.316406 210.886719 222.316406 L 144.457031 222.316406 C 144.40625 223.316406 144.359375 224.300781 144.300781 225.308594 C 144.203125 226.976562 143.871094 228.574219 143.351562 230.085938 Z M 207.679688 227.921875 C 212.011719 227.921875 215.527344 231.429688 215.527344 235.761719 C 215.527344 240.089844 212.011719 243.597656 207.679688 243.597656 C 203.347656 243.597656 199.835938 240.089844 199.835938 235.761719 C 199.839844 231.433594 203.347656 227.921875 207.679688 227.921875 Z M 188.039062 227.921875 C 192.371094 227.921875 195.882812 231.429688 195.882812 235.761719 C 195.882812 240.089844 192.371094 243.597656 188.039062 243.597656 C 183.703125 243.597656 180.195312 240.089844 180.195312 235.761719 C 180.195312 231.433594 183.703125 227.921875 188.039062 227.921875 Z M 168.394531 227.921875 C 172.726562 227.921875 176.238281 231.429688 176.238281 235.761719 C 176.238281 240.089844 172.726562 243.597656 168.394531 243.597656 C 164.0625 243.597656 160.550781 240.089844 160.550781 235.761719 C 160.550781 231.433594 164.0625 227.921875 168.394531 227.921875 Z M 168.394531 227.921875"/><path fill="#FF6347" d="M 152.460938 235.761719 C 152.460938 236.253906 152.367188 236.726562 152.179688 237.179688 C 151.992188 237.632812 151.722656 238.035156 151.375 238.382812 C 151.027344 238.730469 150.625 239 150.171875 239.1875 C 149.714844 239.375 149.242188 239.46875 148.75 239.46875 C 148.257812 239.46875 147.785156 239.375 147.332031 239.1875 C 146.875 239 146.476562 238.730469 146.125 238.382812 C 145.777344 238.035156 145.511719 237.632812 145.320312 237.179688 C 145.132812 236.726562 145.039062 236.253906 145.039062 235.761719 C 145.039062 235.269531 145.132812 234.796875 145.320312 234.339844 C 145.511719 233.886719 145.777344 233.484375 146.125 233.136719 C 146.476562 232.789062 146.875 232.523438 147.332031 232.332031 C 147.785156 232.144531 148.257812 232.050781 148.75 232.050781 C 149.242188 232.050781 149.714844 232.144531 150.171875 232.332031 C 150.625 232.523438 151.027344 232.789062 151.375 233.136719 C 151.722656 233.484375 151.992188 233.886719 152.179688 234.339844 C 152.367188 234.796875 152.460938 235.269531 152.460938 235.761719 Z M 152.460938 235.761719"/><path fill="#FF6347" d="M 172.105469 235.761719 C 172.105469 236.253906 172.011719 236.726562 171.824219 237.179688 C 171.632812 237.632812 171.367188 238.035156 171.019531 238.382812 C 170.667969 238.730469 170.269531 239 169.8125 239.1875 C 169.359375 239.375 168.886719 239.46875 168.394531 239.46875 C 167.902344 239.46875 167.429688 239.375 166.972656 239.1875 C 166.519531 239 166.117188 238.730469 165.769531 238.382812 C 165.421875 238.035156 165.152344 237.632812 164.964844 237.179688 C 164.777344 236.726562 164.683594 236.253906 164.683594 235.761719 C 164.683594 235.269531 164.777344 234.796875 164.964844 234.339844 C 165.152344 233.886719 165.421875 233.484375 165.769531 233.136719 C 166.117188 232.789062 166.519531 232.523438 166.972656 232.332031 C 167.429688 232.144531 167.902344 232.050781 168.394531 232.050781 C 168.886719 232.050781 169.359375 232.144531 169.8125 232.332031 C 170.269531 232.523438 170.667969 232.789062 171.019531 233.136719 C 171.367188 233.484375 171.632812 233.886719 171.824219 234.339844 C 172.011719 234.796875 172.105469 235.269531 172.105469 235.761719 Z M 172.105469 235.761719"/><path fill="#FF6347" d="M 191.75 235.761719 C 191.75 236.253906 191.65625 236.726562 191.46875 237.179688 C 191.277344 237.632812 191.011719 238.035156 190.664062 238.382812 C 190.316406 238.730469 189.914062 239 189.457031 239.1875 C 189.003906 239.375 188.53125 239.46875 188.039062 239.46875 C 187.546875 239.46875 187.074219 239.375 186.617188 239.1875 C 186.164062 239 185.761719 238.730469 185.414062 238.382812 C 185.066406 238.035156 184.796875 237.632812 184.609375 237.179688 C 184.421875 236.726562 184.328125 236.253906 184.328125 235.761719 C 184.328125 235.269531 184.421875 234.796875 184.609375 234.339844 C 184.796875 233.886719 185.066406 233.484375 185.414062 233.136719 C 185.761719 232.789062 186.164062 232.523438 186.617188 232.332031 C 187.074219 232.144531 187.546875 232.050781 188.039062 232.050781 C 188.53125 232.050781 189.003906 232.144531 189.457031 232.332031 C 189.914062 232.523438 190.316406 232.789062 190.664062 233.136719 C 191.011719 233.484375 191.277344 233.886719 191.46875 234.339844 C 191.65625 234.796875 191.75 235.269531 191.75 235.761719 Z M 191.75 235.761719"/><path fill="#FF6347" d="M 211.394531 235.761719 C 211.394531 236.253906 211.300781 236.726562 211.109375 237.179688 C 210.921875 237.632812 210.65625 238.035156 210.304688 238.382812 C 209.957031 238.730469 209.558594 239 209.101562 239.1875 C 208.648438 239.375 208.175781 239.46875 207.683594 239.46875 C 207.191406 239.46875 206.714844 239.375 206.261719 239.1875 C 205.808594 239 205.40625 238.730469 205.058594 238.382812 C 204.710938 238.035156 204.441406 237.632812 204.253906 237.179688 C 204.066406 236.726562 203.972656 236.253906 203.972656 235.761719 C 203.972656 235.269531 204.066406 234.796875 204.253906 234.339844 C 204.441406 233.886719 204.710938 233.484375 205.058594 233.136719 C 205.40625 232.789062 205.808594 232.523438 206.261719 232.332031 C 206.714844 232.144531 207.191406 232.050781 207.683594 232.050781 C 208.175781 232.050781 208.648438 232.144531 209.101562 232.332031 C 209.558594 232.523438 209.957031 232.789062 210.304688 233.136719 C 210.65625 233.484375 210.921875 233.886719 211.109375 234.339844 C 211.300781 234.796875 211.394531 235.269531 211.394531 235.761719 Z M 211.394531 235.761719"/><path fill="#FF6347" d="M 145.074219 200.375 C 145.074219 206.375 144.917969 212.714844 144.617188 219.28125 L 212.917969 219.28125 L 212.917969 180.484375 L 246.390625 118.722656 L 289.617188 107.355469 L 320.707031 175.445312 L 326.207031 173.089844 L 326.207031 179.414062 L 302.839844 179.414062 L 290.277344 168.703125 L 283.421875 172.273438 L 300.554688 200.84375 L 334.820312 200.84375 L 338.25 179.414062 L 334.433594 179.414062 L 334.433594 169.566406 L 339.597656 167.355469 L 302.488281 69.574219 L 271.449219 67.550781 L 280.96875 88.398438 L 232.730469 91.414062 L 196.09375 143.414062 L 149.738281 139.960938 L 149.738281 155.214844 L 141.210938 155.214844 C 143.769531 167.871094 145.046875 182.859375 145.074219 200.375 Z M 299.382812 102.515625 C 295.191406 102.515625 291.792969 99.117188 291.792969 94.925781 C 291.792969 90.738281 295.191406 87.339844 299.382812 87.339844 C 303.578125 87.339844 306.976562 90.738281 306.976562 94.925781 C 306.976562 99.117188 303.578125 102.515625 299.382812 102.515625 Z M 197.8125 148.617188 L 197.8125 172.75 L 172.597656 172.75 L 172.597656 146.738281 Z M 197.8125 148.617188"/><g clip-path="url(#a)"><path fill="#FF6347" d="M 221.113281 210.28125 L 374.445312 210.28125 L 374.445312 214.832031 L 221.113281 214.832031 Z M 221.113281 210.28125"/></g><g clip-path="url(#b)"><path fill="#FF6347" d="M 20.496094 234.484375 C 20.695312 234.484375 20.898438 234.480469 21.101562 234.46875 C 26.742188 234.136719 31.046875 229.300781 30.714844 223.664062 C 30.214844 215.167969 29.988281 207.425781 29.988281 200.382812 C 29.945312 169.441406 34.457031 152.0625 38.894531 142.988281 L 38.894531 334.769531 C 38.894531 343.496094 45.972656 350.566406 54.699219 350.566406 C 63.429688 350.566406 70.507812 343.496094 70.507812 334.769531 L 70.507812 219.433594 L 76.433594 219.433594 L 76.433594 334.769531 C 76.433594 343.496094 83.511719 350.566406 92.238281 350.566406 C 100.96875 350.566406 108.046875 343.496094 108.046875 334.769531 L 108.046875 143.046875 C 108.804688 144.601562 109.566406 146.382812 110.320312 148.460938 C 113.925781 158.441406 116.957031 174.820312 116.945312 200.382812 C 116.945312 207.429688 116.71875 215.167969 116.222656 223.667969 C 115.894531 229.304688 120.199219 234.136719 125.839844 234.46875 C 126.039062 234.476562 126.242188 234.484375 126.441406 234.484375 C 131.820312 234.484375 136.328125 230.289062 136.644531 224.859375 C 137.164062 216 137.402344 207.867188 137.402344 200.386719 C 137.351562 161.820312 131.1875 140.476562 122.78125 127.644531 C 118.585938 121.273438 113.671875 117.1875 109.132812 114.925781 C 104.59375 112.636719 100.613281 112.1875 98.347656 112.195312 C 97.53125 112.195312 96.917969 112.246094 96.535156 112.292969 C 96.527344 112.296875 96.519531 112.296875 96.511719 112.296875 L 50.417969 112.296875 C 50.410156 112.296875 50.402344 112.296875 50.398438 112.292969 C 50.015625 112.25 49.402344 112.191406 48.589844 112.191406 C 46.320312 112.1875 42.335938 112.636719 37.804688 114.925781 C 30.925781 118.332031 23.515625 125.789062 18.324219 138.996094 C 13.078125 152.253906 9.550781 171.429688 9.535156 200.382812 C 9.535156 207.863281 9.773438 216 10.296875 224.863281 C 10.613281 230.292969 15.121094 234.484375 20.496094 234.484375 Z M 20.496094 234.484375"/></g><path fill="#FF6347" d="M 78.160156 104.628906 C 91.816406 102.390625 102.234375 90.546875 102.234375 76.269531 C 102.234375 74.871094 102.128906 73.496094 101.9375 72.148438 L 45.003906 72.148438 C 44.8125 73.496094 44.703125 74.871094 44.703125 76.269531 C 44.703125 90.546875 55.125 102.390625 68.777344 104.628906 C 70.304688 104.878906 71.871094 105.015625 73.46875 105.015625 C 75.066406 105.015625 76.636719 104.878906 78.160156 104.628906 Z M 78.160156 104.628906"/><g clip-path="url(#c)"><path fill="#FF6347" d="M 43.382812 61.882812 C 41.253906 61.882812 39.527344 63.609375 39.527344 65.738281 C 39.527344 67.867188 41.253906 69.59375 43.382812 69.59375 L 103.554688 69.59375 C 105.6875 69.59375 107.410156 67.867188 107.410156 65.738281 C 107.410156 63.609375 105.6875 61.882812 103.554688 61.882812 L 103.023438 61.882812 C 103 61.019531 102.945312 60.167969 102.851562 59.324219 C 101.867188 50.570312 97.0625 42.972656 90.132812 38.238281 L 90.132812 40.601562 C 90.132812 42.285156 88.769531 43.652344 87.082031 43.652344 C 85.398438 43.652344 84.027344 42.285156 84.027344 40.601562 L 84.027344 35.046875 C 81.65625 34.140625 79.140625 33.527344 76.519531 33.257812 L 76.519531 40.601562 C 76.519531 42.285156 75.15625 43.652344 73.46875 43.652344 C 71.78125 43.652344 70.414062 42.285156 70.414062 40.601562 L 70.414062 33.257812 C 67.792969 33.527344 65.277344 34.140625 62.90625 35.050781 L 62.90625 40.601562 C 62.90625 42.285156 61.539062 43.652344 59.851562 43.652344 C 58.167969 43.652344 56.800781 42.285156 56.800781 40.601562 L 56.800781 38.242188 C 49.875 42.976562 45.070312 50.570312 44.089844 59.324219 C 43.992188 60.167969 43.9375 61.019531 43.914062 61.882812 Z M 43.382812 61.882812"/></g><path fill="#FF6347" d="M 280.457031 305.683594 L 261.003906 317.558594 L 265.796875 346.246094 L 310.074219 346.984375 L 324.304688 325.59375 L 311.632812 305.167969 Z M 280.457031 305.683594"/><path fill="#FF6347" d="M 185.882812 311.429688 L 169.003906 321.734375 L 175.796875 345.785156 L 203.167969 349.132812 L 223.929688 328.707031 L 205.964844 316.195312 Z M 185.882812 311.429688"/><path fill="#FF6347" d="M 355.796875 343.578125 L 348.726562 330.730469 L 340.558594 332.589844 L 330.332031 333.402344 L 323.660156 344.65625 L 339.835938 346.101562 Z M 355.796875 343.578125"/><path fill="#FF6347" d="M 231.375 335.957031 L 229.964844 345.011719 L 239.738281 347.140625 L 253.800781 344.917969 L 247.570312 333.605469 L 239.449219 328.785156 Z M 231.375 335.957031"/><path fill="#FF6347" d="M 130.300781 335.957031 L 128.886719 345.011719 L 138.667969 347.140625 L 152.722656 344.917969 L 146.496094 333.605469 L 138.375 328.785156 Z M 130.300781 335.957031"/></svg>