<svg xmlns="http://www.w3.org/2000/svg" width="384" viewBox="0 0 384 384" height="384" version="1.0"><path fill="#FF6347" d="M 156.21875 287.066406 L 154.835938 284.757812 L 152.488281 286.058594 C 146.289062 289.496094 139.308594 291.320312 132.277344 291.320312 C 115.71875 291.320312 101.332031 281.402344 94.636719 267.246094 L 65.007812 338.1875 L 117.019531 333.640625 L 151.679688 374.390625 L 180.410156 305.609375 C 170.414062 302.75 161.757812 296.324219 156.21875 287.066406 Z M 251.601562 291.332031 C 244.582031 291.332031 237.589844 289.519531 231.390625 286.074219 L 229.042969 284.769531 L 227.660156 287.078125 C 222.105469 296.324219 213.449219 302.765625 203.453125 305.609375 L 232.195312 374.390625 L 266.859375 333.652344 L 318.871094 338.203125 L 289.242188 267.261719 C 282.542969 281.417969 268.160156 291.332031 251.601562 291.332031 Z M 318.9375 133.5625 L 309.558594 127.925781 C 305.558594 125.527344 302.863281 121.582031 301.640625 117.085938 C 301.613281 117.003906 301.601562 116.910156 301.574219 116.832031 C 300.324219 112.296875 300.699219 107.464844 302.980469 103.359375 L 308.296875 93.792969 C 313.730469 84.011719 306.78125 71.960938 295.574219 71.773438 L 284.53125 71.585938 C 279.847656 71.503906 275.511719 69.425781 272.210938 66.125 C 272.171875 66.082031 272.144531 66.058594 272.105469 66.015625 C 268.789062 62.714844 266.722656 58.367188 266.644531 53.699219 L 266.457031 42.65625 C 266.265625 31.464844 254.21875 24.515625 244.433594 29.9375 L 234.867188 35.25 C 230.746094 37.53125 225.929688 37.90625 221.394531 36.65625 C 221.3125 36.632812 221.21875 36.617188 221.140625 36.589844 C 216.644531 35.371094 212.699219 32.660156 210.296875 28.675781 L 204.660156 19.296875 C 198.902344 9.703125 184.988281 9.703125 179.230469 19.296875 L 173.636719 28.632812 C 171.21875 32.660156 167.234375 35.382812 162.710938 36.617188 C 162.660156 36.632812 162.617188 36.644531 162.566406 36.65625 C 157.988281 37.917969 153.132812 37.542969 148.984375 35.234375 L 139.46875 29.949219 C 129.6875 24.515625 117.636719 31.464844 117.449219 42.667969 L 117.25 53.710938 C 117.167969 58.382812 115.085938 62.714844 111.785156 66.03125 C 111.746094 66.058594 111.707031 66.097656 111.679688 66.136719 C 108.378906 69.453125 104.03125 71.519531 99.359375 71.597656 L 88.316406 71.785156 C 77.125 71.972656 70.175781 84.011719 75.609375 93.804688 L 80.921875 103.371094 C 83.203125 107.492188 83.578125 112.308594 82.332031 116.84375 C 82.292969 116.925781 82.277344 117.019531 82.25 117.097656 C 81.03125 121.59375 78.320312 125.539062 74.332031 127.941406 L 64.953125 133.578125 C 55.359375 139.332031 55.359375 153.246094 64.953125 159.003906 L 74.332031 164.640625 C 78.332031 167.042969 81.03125 170.984375 82.25 175.480469 C 82.277344 175.5625 82.292969 175.640625 82.316406 175.734375 C 83.566406 180.269531 83.191406 185.101562 80.910156 189.207031 L 75.59375 198.773438 C 70.160156 208.554688 77.113281 220.605469 88.316406 220.792969 L 99.359375 220.980469 C 104.042969 221.0625 108.378906 223.140625 111.679688 226.441406 C 111.71875 226.484375 111.746094 226.511719 111.785156 226.550781 C 115.101562 229.851562 117.167969 234.199219 117.25 238.867188 L 117.4375 249.910156 C 117.625 261.101562 129.675781 268.050781 139.457031 262.632812 L 149.023438 257.316406 C 153.144531 255.035156 157.960938 254.660156 162.496094 255.910156 C 162.578125 255.9375 162.671875 255.949219 162.753906 255.976562 C 167.246094 257.195312 171.191406 259.894531 173.59375 263.894531 L 179.230469 273.273438 C 184.988281 282.867188 198.902344 282.867188 204.660156 273.273438 L 210.296875 263.894531 C 212.699219 259.894531 216.644531 257.195312 221.140625 255.976562 C 221.21875 255.949219 221.3125 255.9375 221.394531 255.910156 C 225.929688 254.660156 230.761719 255.035156 234.867188 257.316406 L 244.433594 262.632812 C 254.21875 268.066406 266.265625 261.113281 266.457031 249.910156 L 266.644531 238.867188 C 266.722656 234.183594 268.804688 229.851562 272.105469 226.550781 C 272.144531 226.511719 272.171875 226.484375 272.210938 226.441406 C 275.511719 223.128906 279.859375 221.0625 284.53125 220.980469 L 295.574219 220.792969 C 306.765625 220.605469 313.71875 208.554688 308.296875 198.773438 L 302.980469 189.207031 C 300.699219 185.089844 300.324219 180.269531 301.574219 175.734375 C 301.601562 175.65625 301.613281 175.5625 301.640625 175.480469 C 302.863281 170.984375 305.558594 167.042969 309.558594 164.640625 L 318.9375 159.003906 C 328.53125 153.234375 328.53125 139.332031 318.9375 133.5625 Z M 255.101562 128.933594 L 193.910156 190.121094 C 191.390625 192.644531 187.980469 194.050781 184.425781 194.050781 C 180.867188 194.050781 177.445312 192.644531 174.9375 190.121094 L 142.019531 157.207031 C 136.773438 151.960938 136.773438 143.480469 142.019531 138.234375 C 147.265625 132.984375 155.746094 132.984375 160.996094 138.234375 L 184.425781 161.660156 L 236.128906 109.960938 C 241.375 104.714844 249.855469 104.714844 255.101562 109.960938 C 260.351562 115.207031 260.351562 123.6875 255.101562 128.933594 Z M 255.101562 128.933594"/></svg>