<svg xmlns="http://www.w3.org/2000/svg" width="384" viewBox="0 0 384 384" height="384" version="1.0"><defs><clipPath id="a"><path d="M 261 120 L 375.460938 120 L 375.460938 336.574219 L 261 336.574219 Z M 261 120"/></clipPath><clipPath id="b"><path d="M 286 47.285156 L 348 47.285156 L 348 81 L 286 81 Z M 286 47.285156"/></clipPath><clipPath id="c"><path d="M 76 197 L 142 197 L 142 336.757812 L 76 336.757812 Z M 76 197"/></clipPath></defs><path fill="#FF6347" d="M 260.339844 222.382812 C 260.628906 227.3125 264.714844 231.113281 269.585938 231.113281 C 269.769531 231.113281 269.949219 231.109375 270.136719 231.097656 C 272.105469 230.980469 273.890625 230.253906 275.328125 229.113281 L 260.238281 220.449219 C 260.273438 221.101562 260.300781 221.726562 260.339844 222.382812 Z M 260.339844 222.382812"/><path fill="#FF6347" d="M 227.117188 167.089844 L 281.398438 204.386719 L 281.398438 194.347656 L 233.890625 149.441406 C 230.398438 146.394531 223.863281 148.175781 219.300781 153.421875 C 215.136719 158.203125 214.058594 164.207031 216.554688 167.539062 C 218.507812 166.410156 220.570312 165.78125 222.546875 165.78125 C 224.203125 165.78125 225.710938 166.203125 227.117188 167.089844 Z M 220.070312 153.957031 C 222.964844 150.636719 226.867188 149.300781 228.789062 150.976562 C 230.707031 152.652344 229.921875 156.703125 227.03125 160.023438 C 224.140625 163.34375 220.238281 164.679688 218.316406 163.003906 C 216.394531 161.328125 217.179688 157.277344 220.070312 153.957031 Z M 221.148438 164.644531 C 223.222656 165.015625 226.140625 163.640625 228.433594 161.007812 C 231.253906 157.773438 232.050781 153.863281 230.3125 152.113281 C 230.855469 152.207031 231.34375 152.421875 231.742188 152.769531 C 233.664062 154.445312 232.875 158.492188 229.984375 161.816406 C 227.09375 165.132812 223.191406 166.46875 221.269531 164.792969 C 221.21875 164.753906 221.195312 164.691406 221.148438 164.644531 Z M 221.148438 164.644531"/><path fill="#FF6347" d="M 281.402344 207.179688 L 225.804688 169 C 221.882812 166.535156 215.703125 169.304688 212.003906 175.195312 C 208.304688 181.082031 208.484375 187.855469 212.410156 190.320312 L 281.402344 229.929688 Z M 213.109375 175.589844 C 215.347656 171.796875 218.9375 169.769531 221.132812 171.0625 C 223.328125 172.359375 223.296875 176.484375 221.0625 180.277344 C 218.828125 184.070312 215.238281 186.101562 213.039062 184.804688 C 210.84375 183.511719 210.878906 179.386719 213.109375 175.589844 Z M 216.273438 186.023438 C 216.210938 185.988281 216.15625 185.941406 216.101562 185.902344 C 218.210938 185.902344 220.847656 184.007812 222.625 180.988281 C 224.796875 177.300781 224.878906 173.308594 222.867188 171.898438 C 223.40625 171.898438 223.914062 172.015625 224.367188 172.28125 C 226.5625 173.578125 226.53125 177.703125 224.296875 181.496094 C 222.0625 185.292969 218.46875 187.320312 216.273438 186.023438 Z M 216.273438 186.023438"/><g clip-path="url(#a)"><path fill="#FF6347" d="M 350.976562 153.074219 C 354.238281 162.128906 356.988281 176.988281 356.976562 200.179688 C 356.976562 206.570312 356.769531 213.59375 356.324219 221.304688 C 356.023438 226.417969 359.929688 230.804688 365.039062 231.097656 C 365.222656 231.109375 365.402344 231.117188 365.582031 231.117188 C 370.457031 231.117188 374.542969 227.308594 374.828125 222.378906 C 375.292969 214.347656 375.511719 206.96875 375.511719 200.179688 C 375.464844 165.195312 369.882812 145.832031 362.265625 134.1875 C 358.460938 128.410156 354.007812 124.703125 349.894531 122.648438 C 345.957031 120.664062 342.496094 120.207031 340.40625 120.179688 C 340.257812 120.171875 340.113281 120.15625 339.960938 120.15625 L 334.953125 120.15625 L 331.976562 143.445312 L 320.679688 129.828125 L 329.402344 120.15625 L 305.007812 120.15625 L 313.730469 129.828125 L 302.433594 143.445312 L 299.457031 120.15625 L 295.207031 120.15625 C 295.085938 120.15625 294.972656 120.167969 294.851562 120.175781 C 292.773438 120.191406 289.261719 120.632812 285.269531 122.648438 C 279.035156 125.738281 272.320312 132.5 267.617188 144.484375 C 264.816406 151.570312 262.566406 160.535156 261.179688 172.054688 L 278.433594 188.371094 C 279.371094 167.550781 282.839844 155.105469 286.253906 148.109375 L 286.253906 321.980469 C 286.253906 329.898438 292.667969 336.3125 300.574219 336.3125 C 308.484375 336.3125 314.898438 329.898438 314.898438 321.980469 L 314.898438 217.347656 L 320.269531 217.347656 L 320.269531 321.980469 C 320.269531 329.898438 326.683594 336.3125 334.589844 336.3125 C 342.5 336.3125 348.914062 329.898438 348.914062 321.980469 L 348.914062 148.167969 C 349.601562 149.574219 350.292969 151.191406 350.976562 153.074219 Z M 350.976562 153.074219"/></g><path fill="#FF6347" d="M 291.335938 82.84375 C 291.210938 83.875 291.140625 84.917969 291.140625 85.980469 C 291.140625 100.386719 302.8125 112.0625 317.207031 112.0625 C 331.601562 112.0625 343.269531 100.386719 343.269531 85.980469 C 343.269531 84.917969 343.199219 83.875 343.074219 82.84375 Z M 291.335938 82.84375"/><g clip-path="url(#b)"><path fill="#FF6347" d="M 289.945312 73.527344 C 288.015625 73.527344 286.453125 75.097656 286.453125 77.027344 C 286.453125 78.960938 288.015625 80.527344 289.945312 80.527344 L 344.464844 80.527344 C 346.398438 80.527344 347.960938 78.960938 347.960938 77.027344 C 347.960938 75.097656 346.398438 73.527344 344.464844 73.527344 L 343.984375 73.527344 C 343.964844 72.746094 343.914062 71.972656 343.828125 71.210938 C 342.9375 63.269531 338.582031 56.375 332.304688 52.082031 L 332.304688 54.222656 C 332.304688 55.75 331.070312 56.992188 329.542969 56.992188 C 328.015625 56.992188 326.773438 55.753906 326.773438 54.222656 L 326.773438 49.1875 C 324.625 48.363281 322.34375 47.804688 319.972656 47.5625 L 319.972656 54.222656 C 319.972656 55.75 318.734375 56.992188 317.207031 56.992188 C 315.675781 56.992188 314.4375 55.753906 314.4375 54.222656 L 314.4375 47.5625 C 312.0625 47.804688 309.785156 48.363281 307.636719 49.1875 L 307.636719 54.222656 C 307.636719 55.75 306.398438 56.992188 304.867188 56.992188 C 303.339844 56.992188 302.101562 55.753906 302.101562 54.222656 L 302.101562 52.085938 C 295.828125 56.375 291.472656 63.269531 290.582031 71.210938 C 290.5 71.972656 290.449219 72.746094 290.425781 73.527344 Z M 289.945312 73.527344"/></g><g clip-path="url(#c)"><path fill="#FF6347" d="M 111.566406 214.890625 L 105.828125 218.191406 L 95.925781 223.886719 L 76.089844 235.289062 L 76.089844 321.835938 C 76.089844 330.066406 82.75 336.738281 90.960938 336.738281 C 99.171875 336.738281 105.828125 330.066406 105.828125 321.835938 L 105.828125 223.886719 L 111.566406 223.886719 L 111.566406 321.835938 C 111.566406 330.066406 118.226562 336.738281 126.441406 336.738281 C 134.648438 336.738281 141.308594 330.066406 141.308594 321.835938 L 141.308594 197.789062 L 141.144531 197.886719 Z M 111.566406 214.890625"/></g><path fill="#FF6347" d="M 134.964844 81.492188 C 135.167969 82.359375 135.324219 83.230469 135.441406 84.109375 C 135.554688 84.992188 135.628906 85.875 135.65625 86.761719 C 135.683594 87.648438 135.671875 88.535156 135.613281 89.421875 C 135.554688 90.308594 135.453125 91.191406 135.308594 92.066406 C 135.164062 92.941406 134.976562 93.808594 134.746094 94.664062 C 134.515625 95.523438 134.246094 96.367188 133.933594 97.199219 C 133.621094 98.03125 133.269531 98.84375 132.878906 99.640625 C 132.484375 100.433594 132.054688 101.210938 131.585938 101.964844 C 131.117188 102.71875 130.613281 103.445312 130.074219 104.152344 C 129.535156 104.855469 128.960938 105.53125 128.355469 106.179688 C 127.75 106.828125 127.113281 107.445312 126.449219 108.027344 C 125.78125 108.613281 125.089844 109.164062 124.367188 109.683594 C 123.648438 110.199219 122.902344 110.679688 122.136719 111.125 C 121.367188 111.566406 120.582031 111.972656 119.773438 112.339844 C 118.96875 112.703125 118.144531 113.03125 117.304688 113.316406 C 116.464844 113.601562 115.613281 113.84375 114.75 114.046875 C 113.886719 114.246094 113.019531 114.40625 112.140625 114.519531 C 111.261719 114.636719 110.378906 114.707031 109.492188 114.738281 C 108.605469 114.765625 107.722656 114.75 106.839844 114.695312 C 105.953125 114.636719 105.074219 114.535156 104.199219 114.390625 C 103.328125 114.242188 102.460938 114.054688 101.605469 113.828125 C 100.75 113.597656 99.90625 113.324219 99.078125 113.011719 C 98.25 112.699219 97.4375 112.347656 96.640625 111.953125 C 95.847656 111.558594 95.074219 111.128906 94.320312 110.660156 C 93.570312 110.191406 92.839844 109.6875 92.140625 109.144531 C 91.4375 108.605469 90.761719 108.03125 90.113281 107.421875 C 89.46875 106.816406 88.851562 106.179688 88.269531 105.511719 C 87.683594 104.84375 87.136719 104.148438 86.617188 103.425781 C 86.101562 102.707031 85.625 101.960938 85.179688 101.191406 C 84.738281 100.421875 84.332031 99.632812 83.96875 98.824219 C 83.601562 98.015625 83.277344 97.191406 82.992188 96.347656 C 82.707031 95.507812 82.464844 94.65625 82.265625 93.792969 C 82.0625 92.925781 81.90625 92.054688 81.789062 91.171875 C 81.675781 90.292969 81.601562 89.410156 81.574219 88.523438 C 81.546875 87.632812 81.558594 86.746094 81.617188 85.863281 C 81.675781 84.976562 81.777344 84.09375 81.921875 83.21875 C 82.066406 82.34375 82.253906 81.476562 82.484375 80.617188 C 82.714844 79.761719 82.984375 78.917969 83.296875 78.085938 C 83.609375 77.253906 83.960938 76.441406 84.355469 75.644531 C 84.746094 74.847656 85.175781 74.074219 85.644531 73.320312 C 86.113281 72.566406 86.617188 71.835938 87.15625 71.132812 C 87.695312 70.429688 88.269531 69.753906 88.875 69.105469 C 89.480469 68.457031 90.117188 67.839844 90.78125 67.253906 C 91.449219 66.667969 92.140625 66.117188 92.863281 65.601562 C 93.582031 65.085938 94.328125 64.605469 95.09375 64.160156 C 95.863281 63.71875 96.648438 63.3125 97.457031 62.945312 C 98.265625 62.578125 99.085938 62.253906 99.925781 61.96875 C 100.765625 61.683594 101.617188 61.441406 102.480469 61.238281 C 103.34375 61.039062 104.214844 60.878906 105.089844 60.761719 C 105.96875 60.648438 106.851562 60.574219 107.738281 60.546875 C 108.625 60.519531 109.507812 60.53125 110.394531 60.589844 C 111.277344 60.648438 112.15625 60.75 113.03125 60.894531 C 113.90625 61.039062 114.769531 61.226562 115.625 61.457031 C 116.480469 61.6875 117.324219 61.960938 118.152344 62.273438 C 118.980469 62.585938 119.792969 62.9375 120.589844 63.332031 C 121.382812 63.722656 122.15625 64.15625 122.910156 64.625 C 123.660156 65.09375 124.390625 65.597656 125.09375 66.140625 C 125.792969 66.679688 126.46875 67.253906 127.117188 67.859375 C 127.761719 68.46875 128.378906 69.105469 128.960938 69.773438 C 129.546875 70.441406 130.097656 71.136719 130.613281 71.855469 C 131.128906 72.578125 131.605469 73.324219 132.050781 74.09375 C 132.492188 74.863281 132.898438 75.652344 133.261719 76.460938 C 133.628906 77.269531 133.953125 78.09375 134.238281 78.933594 C 134.523438 79.777344 134.765625 80.628906 134.964844 81.492188 Z M 134.964844 81.492188"/><path fill="#FF6347" d="M 146.042969 220.417969 C 144.164062 225.398438 146.664062 230.964844 151.632812 232.851562 C 152.753906 233.277344 153.90625 233.476562 155.039062 233.476562 C 158.925781 233.476562 162.582031 231.105469 164.039062 227.25 C 170.03125 211.390625 172.519531 197.457031 172.515625 185.320312 C 172.519531 183.480469 172.445312 181.703125 172.339844 179.953125 L 153.042969 191.042969 C 152.398438 199.371094 150.316406 209.097656 146.042969 220.417969 Z M 146.042969 220.417969"/><path fill="#FF6347" d="M 44.214844 197.558594 L 15.851562 224.410156 L 15.875 224.4375 C 14.164062 226.167969 13.542969 228.789062 13.933594 231.679688 L 47.035156 208.90625 C 45.871094 205.050781 44.933594 201.265625 44.214844 197.558594 Z M 44.214844 197.558594"/><path fill="#FF6347" d="M 76.402344 188.695312 L 93.324219 177.050781 L 137.488281 146.664062 L 141.144531 144.148438 L 153.636719 135.554688 L 154.96875 134.632812 C 159.5 131.78125 165.351562 131.992188 171.121094 135.15625 C 171.21875 135.210938 171.316406 135.277344 171.414062 135.332031 C 176.472656 129.949219 174.851562 119.21875 167.492188 110.757812 C 159.824219 101.9375 148.847656 98.9375 142.980469 104.0625 L 123.152344 122.832031 L 76.085938 167.386719 L 66.675781 176.296875 C 66.578125 177.566406 66.519531 178.886719 66.511719 180.269531 C 66.511719 184.699219 67.078125 189.425781 68.128906 194.390625 L 76.085938 188.914062 Z M 151.554688 106.648438 C 154.785156 103.828125 161.335938 106.074219 166.195312 111.660156 C 171.050781 117.25 172.371094 124.0625 169.144531 126.878906 C 168.652344 127.308594 168.078125 127.605469 167.449219 127.808594 C 166.832031 128.003906 166.164062 128.097656 165.449219 128.085938 C 162.113281 128.027344 157.898438 125.765625 154.503906 121.867188 C 150.488281 117.25 148.902344 111.796875 150.292969 108.453125 C 150.453125 108.0625 150.65625 107.703125 150.898438 107.375 C 151.09375 107.113281 151.308594 106.867188 151.554688 106.648438 Z M 146.59375 109.660156 C 147.253906 109.085938 148.058594 108.730469 148.953125 108.5625 C 146.066406 111.519531 147.429688 118.09375 152.152344 123.523438 C 156.015625 127.96875 160.949219 130.285156 164.433594 129.632812 C 164.351562 129.71875 164.277344 129.8125 164.183594 129.890625 C 160.957031 132.710938 154.402344 130.464844 149.542969 124.878906 C 144.6875 119.292969 143.367188 112.480469 146.59375 109.660156 Z M 146.59375 109.660156"/><path fill="#FF6347" d="M 171.714844 138.851562 C 170.859375 138.265625 169.992188 137.757812 169.121094 137.320312 C 164.660156 135.066406 160.074219 134.753906 156.566406 136.964844 L 155.554688 137.660156 L 141.144531 147.570312 L 139.542969 148.671875 L 96.824219 178.054688 L 76.085938 192.3125 L 68.792969 197.332031 C 70.078125 202.5 71.917969 207.933594 74.285156 213.59375 C 74.488281 214.078125 74.667969 214.550781 74.878906 215.039062 C 75.066406 215.476562 75.214844 215.914062 75.351562 216.359375 C 77.078125 222.128906 74.257812 228.433594 68.605469 230.882812 C 67.082031 231.542969 65.480469 231.875 63.839844 231.875 C 61.742188 231.875 59.75 231.300781 57.992188 230.320312 C 57.140625 229.84375 56.34375 229.273438 55.628906 228.601562 C 54.445312 227.492188 53.460938 226.148438 52.792969 224.59375 C 50.90625 220.214844 49.285156 215.914062 47.910156 211.695312 L 14.640625 234.574219 L 12.375 236.132812 L 12.394531 236.164062 C 12.34375 236.199219 12.300781 236.246094 12.253906 236.285156 C 8.394531 239.316406 8.355469 246.527344 12.320312 252.847656 C 16.335938 259.246094 22.957031 262.351562 27.359375 260.007812 L 27.378906 260.039062 L 76.089844 232.03125 L 90.265625 223.882812 L 105.832031 214.933594 L 111.570312 211.632812 L 141.148438 194.628906 L 141.3125 194.535156 L 153.226562 187.683594 L 172.097656 176.835938 L 179.070312 172.828125 C 185.660156 168.679688 185.964844 157.28125 179.75 147.378906 C 177.492188 143.789062 174.683594 140.894531 171.714844 138.851562 Z M 172.574219 165.601562 C 171.882812 166.011719 171.105469 166.222656 170.277344 166.253906 C 166.699219 166.390625 162.148438 163.167969 159.101562 157.988281 C 157.742188 155.675781 156.878906 153.296875 156.492188 151.09375 C 156.277344 149.875 156.203125 148.707031 156.289062 147.640625 C 156.472656 145.304688 157.371094 143.441406 158.984375 142.488281 C 159.085938 142.425781 159.191406 142.390625 159.296875 142.335938 C 159.972656 142.003906 160.710938 141.839844 161.5 141.839844 C 160.917969 142.25 160.433594 142.785156 160.058594 143.429688 C 159.765625 143.945312 159.535156 144.527344 159.375 145.160156 C 159.082031 146.289062 158.996094 147.578125 159.128906 148.976562 C 159.363281 151.511719 160.289062 154.375 161.910156 157.132812 C 164.097656 160.851562 167.054688 163.550781 169.875 164.734375 C 170.90625 165.167969 171.917969 165.398438 172.867188 165.398438 C 172.769531 165.464844 172.679688 165.542969 172.574219 165.601562 Z M 178.003906 163.554688 C 177.441406 163.886719 176.820312 164.074219 176.164062 164.152344 C 175.523438 164.234375 174.851562 164.203125 174.148438 164.0625 C 172.421875 163.707031 170.570312 162.703125 168.820312 161.175781 C 167.253906 159.8125 165.765625 158.039062 164.53125 155.933594 C 162.71875 152.855469 161.78125 149.648438 161.699219 146.910156 C 161.6875 146.570312 161.691406 146.242188 161.707031 145.921875 C 161.765625 144.703125 162.011719 143.609375 162.445312 142.6875 C 162.566406 142.4375 162.695312 142.199219 162.839844 141.976562 C 163.070312 141.625 163.335938 141.308594 163.636719 141.03125 C 163.875 140.808594 164.128906 140.601562 164.414062 140.433594 C 164.890625 140.15625 165.402344 139.96875 165.949219 139.867188 C 167.125 139.652344 168.441406 139.851562 169.789062 140.398438 C 172.648438 141.550781 175.664062 144.273438 177.886719 148.050781 C 181.636719 154.4375 181.691406 161.375 178.003906 163.554688 Z M 178.003906 163.554688"/><path fill="#FF6347" d="M 45.746094 192.265625 C 45.902344 193.359375 46.085938 194.476562 46.285156 195.601562 C 46.960938 199.402344 47.902344 203.359375 49.113281 207.476562 C 49.386719 208.402344 49.671875 209.335938 49.972656 210.273438 C 51.34375 214.5625 53.003906 219.011719 55 223.640625 C 55.589844 225.011719 56.460938 226.171875 57.511719 227.089844 C 58.269531 227.753906 59.132812 228.273438 60.046875 228.667969 C 61.238281 229.179688 62.523438 229.464844 63.839844 229.464844 C 65.113281 229.464844 66.40625 229.210938 67.648438 228.671875 C 71.863281 226.84375 74.105469 222.359375 73.285156 218.019531 C 73.152344 217.339844 72.957031 216.660156 72.667969 215.992188 C 72.550781 215.71875 72.441406 215.449219 72.324219 215.171875 C 69.808594 209.238281 67.964844 203.785156 66.671875 198.789062 C 66.417969 197.804688 66.179688 196.832031 65.964844 195.878906 C 64.65625 190.03125 64.109375 184.839844 64.109375 180.257812 C 64.113281 179.71875 64.136719 179.207031 64.152344 178.683594 C 64.195312 177.265625 64.277344 175.890625 64.417969 174.582031 C 64.695312 171.957031 65.148438 169.546875 65.746094 167.324219 C 67.886719 159.347656 71.832031 153.824219 75.792969 149.703125 C 75.894531 149.605469 75.992188 149.515625 76.085938 149.417969 L 76.085938 163.527344 L 119.054688 122.832031 L 85.382812 122.832031 C 84.605469 122.832031 83.855469 122.9375 83.128906 123.117188 C 82.042969 123.148438 80.945312 123.351562 79.875 123.769531 C 79.082031 124.101562 70.710938 127.425781 62.078125 136.179688 C 55.261719 143.023438 48.449219 153.632812 45.914062 167.992188 C 45.238281 171.820312 44.847656 175.898438 44.867188 180.257812 C 44.867188 184.066406 45.148438 188.070312 45.746094 192.265625 Z M 45.746094 192.265625"/></svg>