<svg xmlns="http://www.w3.org/2000/svg" width="384" viewBox="0 0 384 384" height="384" version="1.0"><defs><clipPath id="a"><path d="M 105.300781 141.128906 L 294.910156 141.128906 L 294.910156 307.828125 L 105.300781 307.828125 Z M 105.300781 141.128906"/></clipPath><clipPath id="b"><path d="M 0 76.101562 L 90 76.101562 L 90 217 L 0 217 Z M 0 76.101562"/></clipPath><clipPath id="c"><path d="M 293 76.101562 L 383.746094 76.101562 L 383.746094 217 L 293 217 Z M 293 76.101562"/></clipPath><clipPath id="d"><path d="M 161 287.691406 L 184.847656 287.691406 L 184.847656 307.828125 L 161 307.828125 Z M 161 287.691406"/></clipPath></defs><path fill="#FF6347" d="M 87.152344 218.609375 L 62.597656 210.097656 L 93.9375 119.71875 L 118.503906 128.242188 L 87.152344 218.609375"/><path fill="#FF6347" d="M 295.988281 218.609375 L 320.546875 210.097656 L 289.207031 119.71875 L 264.640625 128.242188 L 295.988281 218.609375"/><path fill="#FF6347" d="M 178.484375 149.742188 C 173.371094 152.839844 171.03125 155.023438 168.140625 157.84375 C 152.292969 173.644531 121.703125 206.460938 121.464844 206.796875 C 117.941406 211.792969 124.136719 216.273438 133.621094 216.273438 C 139.753906 216.273438 147.261719 214.40625 154.421875 209.585938 C 173.421875 196.800781 188.628906 177.816406 188.628906 177.816406 C 188.628906 177.816406 203.703125 192.390625 225.714844 192.390625 C 229.507812 192.390625 233.902344 192.207031 238.066406 191.183594 C 238.066406 191.183594 245.878906 190.246094 255.398438 179.378906 C 254.824219 182.628906 254.824219 184.140625 253.304688 187.195312 C 252.6875 188.433594 251.988281 190.078125 250.679688 191.773438 L 277.449219 211.53125 C 277.019531 184.90625 261.480469 157.089844 256.183594 141.347656 C 211.054688 131.96875 178.484375 149.742188 178.484375 149.742188"/><g clip-path="url(#a)"><path fill="#FF6347" d="M 281.09375 255.867188 C 285.519531 255.867188 289.648438 254.085938 292.234375 250.578125 C 296.941406 244.210938 294.734375 234.605469 287.300781 229.117188 L 243.425781 196.984375 C 242.128906 197.519531 240.714844 198.015625 239.019531 198.429688 C 234.441406 199.546875 230.375 200.679688 225.714844 200.679688 C 209.789062 200.679688 197.09375 194.136719 189.769531 189.179688 C 183.472656 196.15625 172.203125 207.621094 159.054688 216.464844 C 151.289062 221.691406 142.253906 224.5625 133.621094 224.5625 C 123.523438 224.5625 115.871094 220.757812 113.152344 214.378906 C 111.113281 209.59375 112.296875 204.238281 116.320312 200.058594 C 118.53125 197.746094 153.808594 160.230469 165.554688 148.75 C 166.332031 147.984375 167.1875 147.265625 168.082031 146.566406 C 168.089844 146.566406 168.089844 146.566406 168.089844 146.566406 C 159.3125 144.144531 146.363281 142.074219 133.605469 141.519531 C 133.015625 141.496094 128.585938 141.347656 126.96875 141.347656 C 126.726562 142.074219 123.746094 149.585938 123.410156 150.375 C 116.121094 167.675781 102.378906 198.246094 106.359375 221.347656 C 107.550781 228.234375 110.296875 234.460938 115.292969 239.449219 C 115.292969 239.449219 180.664062 292.660156 182.570312 293.566406 L 196.210938 303.628906 C 199.898438 306.546875 203.730469 307.828125 207.289062 307.828125 C 212.820312 307.828125 217.703125 304.746094 220.375 299.933594 C 222.972656 295.269531 221.9375 290.34375 220.738281 286.371094 L 223.121094 288.128906 C 226.46875 290.59375 230.304688 291.816406 233.941406 291.816406 C 238.375 291.816406 242.5 290.019531 245.078125 286.519531 C 249.328125 280.765625 247.902344 272.394531 242.128906 266.789062 L 246.6875 270.15625 C 250.039062 272.636719 253.878906 273.84375 257.515625 273.84375 C 261.941406 273.84375 266.070312 272.042969 268.65625 268.546875 C 272.90625 262.796875 271.476562 254.4375 265.707031 248.824219 L 270.265625 252.199219 C 273.613281 254.664062 277.460938 255.867188 281.09375 255.867188"/></g><path fill="#FF6347" d="M 115.464844 250.285156 C 113.707031 248.847656 111.09375 246.972656 109.421875 245.308594 C 104.359375 240.238281 100.800781 233.644531 99.035156 226.765625 L 95.84375 229.117188 C 88.417969 234.605469 86.210938 244.210938 90.917969 250.578125 C 95.625 256.957031 105.453125 257.667969 112.875 252.199219 L 115.464844 250.285156"/><path fill="#FF6347" d="M 138.28125 268.8125 C 131.890625 263.628906 124.476562 257.609375 115.871094 250.605469 C 111.476562 256.097656 110.667969 263.371094 114.496094 268.546875 C 119.195312 274.914062 129.027344 275.640625 136.453125 270.15625 L 138.28125 268.8125"/><g clip-path="url(#b)"><path fill="#FF6347" d="M 89.921875 97.84375 L 28.078125 76.101562 C 10.414062 105.113281 0.238281 139.191406 0.238281 175.640625 C 0.238281 184.183594 0.855469 192.578125 1.9375 200.832031 L 48.707031 216.699219 L 89.921875 97.84375"/></g><g clip-path="url(#c)"><path fill="#FF6347" d="M 355.929688 76.132812 L 293.21875 97.84375 L 334.4375 216.699219 L 382.121094 200.25 C 383.15625 192.1875 383.746094 183.984375 383.746094 175.640625 C 383.746094 139.203125 373.578125 105.136719 355.929688 76.132812"/></g><path fill="#FF6347" d="M 138.878906 269.289062 C 134.972656 274.6875 134.40625 281.5625 138.0625 286.519531 C 142.765625 292.890625 152.597656 293.609375 160.03125 288.128906 L 161.183594 287.28125 C 155.683594 282.886719 148.460938 277.050781 138.878906 269.289062"/><g clip-path="url(#d)"><path fill="#FF6347" d="M 161.96875 287.921875 C 161.007812 291.574219 160.496094 295.851562 162.765625 299.933594 C 166.792969 307.179688 175.792969 310.457031 184.5 305.289062 C 184.5 305.289062 172.113281 296.039062 161.96875 287.921875"/></g></svg>