<svg xmlns="http://www.w3.org/2000/svg" width="384" viewBox="0 0 384 384" height="384" version="1.0"><defs><clipPath id="a"><path d="M 0 22 L 384 22 L 384 361.742188 L 0 361.742188 Z M 0 22"/></clipPath></defs><g clip-path="url(#a)"><path fill="#FF6347" d="M 216.886719 239.789062 L 207.410156 230.320312 L 185.691406 252.019531 L 176.589844 242.925781 L 167.113281 252.429688 L 176.214844 261.488281 L 185.691406 270.960938 Z M 242.183594 250.453125 C 242.183594 278.078125 219.648438 300.5625 192 300.5625 C 164.351562 300.5625 141.816406 278.078125 141.816406 250.453125 C 141.816406 222.792969 164.351562 200.308594 192 200.308594 C 219.648438 200.308594 242.183594 222.792969 242.183594 250.453125 Z M 199.5 187.671875 C 218.078125 190.054688 234.273438 200.308594 244.535156 214.921875 L 269.828125 214.921875 L 269.828125 164.371094 C 269.828125 159.636719 267.851562 155.308594 264.308594 152.550781 C 244.535156 136.367188 222.816406 125.296875 218.453125 123.320312 C 218.078125 122.949219 217.671875 122.539062 217.671875 122.128906 L 217.671875 108.707031 C 219.648438 104.789062 220.839844 100.429688 221.625 96.480469 C 222.035156 96.886719 222.410156 96.886719 222.816406 96.886719 C 224.386719 96.886719 226.773438 94.503906 229.535156 85.441406 C 232.296875 75.972656 230.691406 72.804688 228.339844 72.019531 C 235.875 36.488281 218.863281 35.296875 218.863281 35.296875 C 218.863281 35.296875 216.476562 30.5625 209.386719 26.609375 C 205.433594 24.226562 200.316406 22.285156 193.566406 22.285156 C 192.410156 22.285156 191.589844 22.285156 190.433594 22.285156 C 187.671875 22.285156 185.285156 23.070312 182.933594 23.851562 C 179.761719 25.042969 177 26.203125 174.613281 28.179688 C 171.441406 30.152344 168.683594 32.539062 165.921875 35.296875 C 161.964844 39.625 158.011719 44.769531 156.441406 51.480469 C 154.875 56.996094 154.875 63.332031 157.226562 69.636719 L 156.851562 69.636719 C 154.089844 69.636719 150.921875 72.019531 154.089844 83.058594 C 156.441406 91.742188 158.828125 94.128906 160.773438 94.503906 C 161.589844 99.648438 163.160156 105.164062 165.921875 110.308594 L 165.921875 121.753906 C 165.921875 122.128906 165.546875 122.949219 165.136719 122.949219 C 160.773438 124.921875 139.464844 135.960938 119.316406 152.140625 C 115.738281 154.898438 113.761719 159.636719 113.761719 163.996094 L 113.761719 214.515625 L 139.058594 214.515625 C 148.941406 199.527344 165.136719 189.238281 184.089844 187.296875 L 187.671875 158.066406 C 171.851562 135.960938 188.828125 134.769531 192 134.769531 C 195.171875 134.769531 212.148438 135.960938 196.328125 158.066406 Z M 212.933594 333.332031 L 202.261719 333.332031 L 202.261719 312.417969 C 199.125 312.824219 195.546875 313.199219 192 313.199219 C 188.453125 313.199219 185.285156 312.824219 181.738281 312.417969 L 181.738281 333.332031 L 171.066406 333.332031 C 169.875 333.332031 169.089844 334.523438 169.875 335.71875 L 190.808594 360.960938 C 191.589844 361.777344 192.785156 361.777344 193.566406 360.960938 L 214.535156 335.71875 C 214.910156 334.523438 214.125 333.332031 212.933594 333.332031 Z M 141.035156 286.765625 L 126.410156 301.378906 L 118.910156 293.851562 C 118.125 293.066406 116.558594 293.476562 116.558594 294.667969 L 112.976562 327.40625 C 112.976562 328.597656 113.761719 329.382812 114.953125 329.382812 L 147.75 326.246094 C 148.941406 326.246094 149.316406 324.644531 148.535156 323.863281 L 140.625 315.960938 L 155.25 301.378906 C 149.726562 297.429688 144.988281 292.695312 141.035156 286.765625 Z M 276.921875 228.34375 C 276.171875 227.5625 274.566406 228.34375 274.566406 229.503906 L 274.566406 240.164062 L 253.636719 240.164062 C 254.011719 243.332031 254.421875 246.875 254.421875 250.453125 C 254.421875 253.996094 254.011719 257.164062 253.636719 260.707031 L 274.976562 260.707031 L 274.976562 271.367188 C 274.976562 272.5625 276.171875 273.34375 277.328125 272.5625 L 302.625 251.609375 C 303.410156 250.828125 303.410156 249.636719 302.625 248.851562 Z M 129.171875 250.453125 C 129.171875 246.875 129.578125 243.742188 129.988281 240.164062 L 109.023438 240.164062 L 109.023438 229.503906 C 109.023438 228.34375 107.863281 227.5625 106.671875 228.34375 L 81.375 249.261719 C 80.589844 250.042969 80.589844 251.234375 81.375 252.019531 L 106.671875 272.9375 C 107.453125 273.71875 109.023438 272.9375 109.023438 271.742188 L 109.023438 261.113281 L 129.988281 261.113281 C 129.578125 257.164062 129.171875 253.996094 129.171875 250.453125 Z M 265.464844 293.851562 L 257.964844 301.378906 L 242.964844 286.765625 C 239.011719 292.285156 233.863281 297.429688 228.339844 301.378906 L 242.964844 315.960938 L 235.464844 323.488281 C 234.683594 324.273438 235.058594 325.839844 236.25 325.839844 L 269.046875 329.007812 C 270.238281 329.007812 271.023438 328.222656 271.023438 327.03125 L 267.851562 294.261719 C 267.851562 293.851562 266.285156 293.066406 265.464844 293.851562 Z M 378.476562 167.164062 C 359.523438 151.359375 338.964844 141.105469 334.636719 139.128906 C 334.226562 139.128906 334.226562 138.71875 334.226562 137.9375 L 334.226562 125.296875 C 336.203125 121.347656 337.363281 117.019531 337.773438 113.441406 C 338.183594 113.851562 338.558594 113.851562 338.964844 113.851562 C 340.535156 113.851562 342.921875 111.5 345.308594 102.816406 C 346.464844 98.453125 346.839844 95.285156 346.464844 93.3125 C 346.089844 91.367188 345.308594 90.550781 344.078125 90.175781 C 346.464844 79.515625 346.089844 72.019531 345.308594 66.875 C 342.921875 55.429688 335.011719 55.023438 335.011719 55.023438 C 335.011719 55.023438 332.625 50.285156 325.910156 46.742188 C 322.363281 44.359375 317.214844 42.792969 310.910156 42.792969 C 309.714844 42.792969 308.933594 42.792969 307.773438 42.792969 C 304.976562 42.792969 302.625 43.574219 300.648438 44.359375 C 297.886719 45.550781 295.125 46.742188 292.738281 48.3125 C 289.566406 50.285156 286.808594 52.671875 284.453125 55.023438 C 280.5 58.972656 276.921875 64.117188 275.351562 70.828125 C 274.566406 73.585938 274.160156 76.347656 274.566406 79.515625 C 274.566406 82.273438 275.351562 85.441406 276.171875 88.199219 L 275.761719 88.199219 C 273.785156 88.199219 271.398438 89.394531 271.808594 94.503906 C 271.808594 96.105469 272.214844 98.453125 273 101.214844 C 275.351562 109.527344 277.738281 111.875 279.308594 112.285156 C 280.089844 117.019531 281.691406 122.539062 284.453125 127.273438 L 284.453125 138.34375 C 284.453125 138.71875 284.046875 139.503906 283.671875 139.503906 C 282.476562 140.285156 279.683594 141.480469 275.761719 143.453125 C 280.5 148.191406 283.671875 154.898438 284.453125 161.609375 C 284.453125 162.394531 284.453125 163.585938 284.453125 164.371094 L 284.453125 214.921875 L 384 214.921875 L 384 178.984375 C 384 177.792969 384 176.632812 383.625 175.816406 C 382.808594 172.273438 381.238281 169.515625 378.476562 167.164062 Z M 0 214.921875 L 0 178.984375 C 0 174.65625 1.976562 170.296875 5.523438 167.539062 C 24.476562 151.765625 45.035156 141.480469 49.363281 139.503906 C 49.773438 139.128906 50.183594 138.71875 50.183594 138.34375 L 50.183594 127.273438 C 47.421875 122.539062 45.816406 117.019531 45.035156 112.285156 C 43.464844 112.285156 41.078125 109.898438 38.726562 101.214844 C 37.910156 98.453125 37.535156 96.480469 37.535156 94.503906 C 37.125 89.394531 39.101562 88.199219 41.488281 88.199219 L 41.863281 88.199219 C 40.703125 85.03125 40.296875 82.273438 40.296875 79.515625 C 40.296875 76.753906 40.703125 73.585938 41.078125 70.828125 C 42.648438 64.492188 46.226562 59.382812 50.183594 55.023438 C 52.535156 52.261719 55.296875 49.910156 58.464844 48.3125 C 60.851562 46.742188 63.613281 45.175781 66.375 44.359375 C 68.726562 43.574219 71.113281 43.199219 73.464844 42.792969 C 74.660156 42.792969 75.441406 42.792969 76.636719 42.792969 C 82.976562 42.792969 88.089844 44.769531 91.671875 46.742188 C 97.976562 50.285156 100.738281 55.023438 100.738281 55.023438 C 100.738281 55.023438 108.648438 55.429688 111 66.875 C 112.191406 72.019531 112.191406 79.515625 109.839844 90.175781 C 111 90.550781 111.785156 91.367188 112.191406 93.3125 C 112.601562 95.285156 112.191406 98.453125 111 102.816406 C 108.648438 111.5 106.261719 113.851562 104.691406 113.851562 C 104.285156 113.851562 103.910156 113.851562 103.5 113.441406 C 102.714844 117.394531 101.523438 121.347656 99.953125 125.296875 L 99.953125 137.9375 C 99.953125 138.34375 100.328125 138.71875 100.738281 139.128906 C 101.933594 139.910156 104.691406 141.105469 108.648438 143.078125 C 103.125 148.597656 99.953125 156.09375 99.953125 164.371094 L 99.953125 214.921875 L 0 214.921875"/></g></svg>