<svg xmlns="http://www.w3.org/2000/svg" width="384" viewBox="0 0 384 384" height="384" version="1.0"><defs><clipPath id="a"><path d="M 41 335 L 85 335 L 85 362.539062 L 41 362.539062 Z M 41 335"/></clipPath><clipPath id="b"><path d="M 21.289062 182 L 201 182 L 201 323 L 21.289062 323 Z M 21.289062 182"/></clipPath><clipPath id="c"><path d="M 99 242 L 216 242 L 216 362.539062 L 99 362.539062 Z M 99 242"/></clipPath><clipPath id="d"><path d="M 181 21.289062 L 362.539062 21.289062 L 362.539062 203 L 181 203 Z M 181 21.289062"/></clipPath></defs><path fill="#FF6347" d="M 161.921875 131.929688 C 161.921875 104.367188 139.496094 81.941406 111.933594 81.941406 C 84.371094 81.941406 61.945312 104.367188 61.945312 131.929688 C 61.945312 159.492188 84.371094 182.582031 111.933594 182.582031 C 139.496094 182.582031 161.921875 159.492188 161.921875 131.929688 Z M 161.921875 131.929688"/><path fill="#FF6347" d="M 201.914062 282.558594 L 191.914062 282.558594 C 186.390625 282.558594 181.917969 287.035156 181.917969 292.558594 L 181.917969 312.550781 C 181.917969 318.074219 186.390625 322.550781 191.914062 322.550781 L 201.914062 322.550781 C 212.953125 322.550781 221.90625 313.597656 221.90625 302.554688 C 221.90625 291.511719 212.953125 282.558594 201.914062 282.558594 Z M 201.914062 282.558594"/><g clip-path="url(#a)"><path fill="#FF6347" d="M 78.144531 362.539062 L 84.742188 342.542969 L 71.945312 342.542969 C 61.148438 342.542969 50.949219 340.144531 41.953125 335.546875 L 41.953125 352.542969 C 41.953125 358.140625 46.351562 362.539062 51.949219 362.539062 Z M 78.144531 362.539062"/></g><g clip-path="url(#b)"><path fill="#FF6347" d="M 71.945312 322.542969 L 91.539062 322.542969 C 90.722656 325.015625 104.039062 284.667969 104.734375 282.558594 L 71.945312 282.558594 C 66.34375 282.558594 61.945312 278.160156 61.945312 272.5625 L 61.945312 232.570312 C 61.945312 226.972656 66.34375 222.574219 71.945312 222.574219 C 77.542969 222.574219 81.941406 226.972656 81.941406 232.570312 L 81.941406 262.558594 L 111.332031 262.558594 C 110.625 264.660156 121.824219 231.472656 122.53125 229.371094 C 123.734375 225.371094 127.53125 222.574219 131.929688 222.574219 L 200.914062 222.574219 C 196.3125 199.78125 176.121094 182.582031 151.925781 182.582031 L 71.945312 182.582031 C 44.265625 182.582031 21.289062 205.015625 21.289062 232.570312 L 21.289062 272.5625 C 21.289062 301.15625 45.835938 322.542969 71.945312 322.542969 Z M 71.945312 322.542969"/></g><g clip-path="url(#c)"><path fill="#FF6347" d="M 205.242188 242.570312 L 139.136719 242.570312 L 99.140625 362.539062 L 171.917969 362.539062 C 176.222656 362.539062 180.039062 359.785156 181.398438 355.707031 L 185.988281 341.945312 C 172.28125 339.183594 161.921875 327.0625 161.921875 312.550781 L 161.921875 292.558594 C 161.921875 276.019531 175.378906 262.5625 191.914062 262.5625 L 201.914062 262.5625 C 205.40625 262.5625 208.738281 263.15625 211.96875 264 L 214.726562 255.726562 C 216.882812 249.253906 212.066406 242.570312 205.242188 242.570312 Z M 205.242188 242.570312"/></g><g clip-path="url(#d)"><path fill="#FF6347" d="M 332.546875 21.289062 L 211.910156 21.289062 C 195.371094 21.289062 181.917969 34.746094 181.917969 51.28125 L 181.917969 131.929688 C 181.917969 148.46875 195.371094 162.589844 211.910156 162.589844 L 221.90625 162.589844 L 221.90625 192.582031 C 221.90625 196.621094 224.335938 200.273438 228.078125 201.820312 C 231.765625 203.355469 236.089844 202.53125 238.972656 199.648438 L 276.035156 162.589844 L 332.546875 162.589844 C 349.085938 162.589844 362.539062 148.46875 362.539062 131.929688 L 362.539062 51.28125 C 362.539062 34.746094 349.085938 21.289062 332.546875 21.289062 Z M 298.957031 89.007812 L 268.964844 119.003906 C 267.015625 120.957031 264.457031 121.933594 261.898438 121.933594 C 259.339844 121.933594 256.78125 120.957031 254.828125 119.003906 L 239.832031 104.003906 C 235.929688 100.101562 235.929688 93.777344 239.832031 89.871094 C 243.738281 85.964844 250.0625 85.964844 253.96875 89.871094 L 261.898438 97.796875 L 284.824219 74.875 C 288.726562 70.96875 295.054688 70.96875 298.957031 74.875 C 302.863281 78.777344 302.863281 85.105469 298.957031 89.007812 Z M 298.957031 89.007812"/></g></svg>