<svg xmlns="http://www.w3.org/2000/svg" width="384" viewBox="0 0 384 384" height="384" version="1.0"><defs><clipPath id="a"><path d="M 10.476562 75 L 187 75 L 187 110 L 10.476562 110 Z M 10.476562 75"/></clipPath><clipPath id="b"><path d="M 213 75 L 373.476562 75 L 373.476562 110 L 213 110 Z M 213 75"/></clipPath><clipPath id="c"><path d="M 114 238 L 191 238 L 191 358.328125 L 114 358.328125 Z M 114 238"/></clipPath><clipPath id="d"><path d="M 158 201 L 251 201 L 251 358.328125 L 158 358.328125 Z M 158 201"/></clipPath></defs><path fill="#FF6347" d="M 239.691406 119.632812 L 228.667969 115.984375 L 189.246094 102.929688 C 188.324219 102.625 187.390625 102.457031 186.464844 102.394531 C 174.621094 100.453125 158.601562 107.269531 151.890625 126.773438 C 143.183594 152.558594 140.730469 170.160156 143.125 196.683594 L 148.464844 194.402344 C 152 192.890625 156.109375 194.539062 157.621094 198.070312 C 158.320312 199.703125 158.320312 201.445312 157.796875 203.003906 C 177.539062 200.597656 189.46875 195.902344 193.195312 194.253906 C 193.195312 193.917969 193.214844 193.582031 193.21875 193.246094 L 189.660156 191.792969 C 185.589844 190.125 182.503906 186.761719 181.195312 182.5625 L 166.46875 135.398438 C 165.296875 131.648438 165.65625 127.667969 167.484375 124.191406 C 169.308594 120.710938 172.382812 118.152344 176.136719 116.984375 C 177.558594 116.539062 179.039062 116.308594 180.527344 116.308594 C 186.996094 116.308594 192.636719 120.460938 194.566406 126.640625 L 199.949219 143.875 C 200.480469 141.257812 200.992188 138.738281 201.460938 136.351562 C 201.972656 134.582031 202.332031 132.765625 202.546875 130.9375 L 222.886719 137.675781 L 241.632812 143.882812 C 241.722656 143.910156 241.8125 143.917969 241.902344 143.945312 C 242.308594 144.070312 242.71875 144.171875 243.128906 144.246094 C 243.277344 144.273438 243.417969 144.304688 243.5625 144.324219 C 244.09375 144.402344 244.625 144.453125 245.152344 144.453125 C 245.15625 144.453125 245.160156 144.453125 245.164062 144.453125 C 245.207031 144.453125 245.25 144.441406 245.292969 144.441406 C 245.792969 144.4375 246.289062 144.398438 246.777344 144.324219 C 246.972656 144.296875 247.164062 144.246094 247.359375 144.207031 C 247.699219 144.140625 248.035156 144.066406 248.367188 143.96875 C 248.570312 143.90625 248.769531 143.832031 248.96875 143.757812 C 249.285156 143.644531 249.59375 143.519531 249.898438 143.378906 C 250.089844 143.289062 250.273438 143.199219 250.457031 143.097656 C 250.761719 142.9375 251.054688 142.757812 251.34375 142.566406 C 251.511719 142.457031 251.679688 142.347656 251.839844 142.230469 C 252.125 142.015625 252.398438 141.78125 252.664062 141.539062 C 252.808594 141.410156 252.957031 141.289062 253.09375 141.152344 C 253.363281 140.882812 253.609375 140.589844 253.851562 140.289062 C 253.960938 140.15625 254.082031 140.03125 254.1875 139.890625 C 254.511719 139.453125 254.808594 138.988281 255.070312 138.492188 L 255.085938 138.464844 C 255.089844 138.457031 255.09375 138.449219 255.097656 138.4375 L 268.375 113.398438 L 242.996094 113.398438 Z M 239.691406 119.632812"/><path fill="#FF6347" d="M 279.34375 68.773438 C 274.492188 66.210938 268.621094 67.558594 265.328125 71.699219 L 282.863281 71.699219 C 281.933594 70.523438 280.753906 69.519531 279.34375 68.773438 Z M 279.34375 68.773438"/><g clip-path="url(#a)"><path fill="#FF6347" d="M 182.488281 97.875 C 183.761719 97.875 185.023438 97.976562 186.257812 98.136719 C 180.539062 93.257812 176.34375 86.605469 174.59375 78.953125 C 172.113281 78.867188 169.859375 77.726562 168.320312 75.898438 L 10.535156 75.898438 L 10.535156 109.199219 L 157.492188 109.199219 C 165.15625 101.089844 174.792969 97.875 182.488281 97.875 Z M 182.488281 97.875"/></g><g clip-path="url(#b)"><path fill="#FF6347" d="M 244.835938 75.898438 C 244 82.011719 241.582031 87.832031 237.699219 92.847656 C 231.855469 100.390625 223.425781 105.210938 213.953125 106.417969 C 213.746094 106.445312 213.53125 106.453125 213.324219 106.476562 L 221.539062 109.199219 L 373.46875 109.199219 L 373.46875 75.898438 Z M 244.835938 75.898438"/></g><g clip-path="url(#c)"><path fill="#FF6347" d="M 159.625 239.628906 L 153.828125 242.105469 L 155.539062 280.585938 L 117.882812 330.097656 C 112.027344 337.796875 113.53125 348.777344 121.234375 354.625 C 124.402344 357.03125 128.125 358.195312 131.820312 358.195312 C 137.109375 358.195312 142.335938 355.8125 145.785156 351.277344 L 187.273438 296.722656 C 189.75 293.464844 191.007812 289.445312 190.824219 285.355469 L 190.070312 268.347656 L 161.832031 238.339844 C 161.164062 238.84375 160.429688 239.285156 159.625 239.628906 Z M 159.625 239.628906"/></g><g clip-path="url(#d)"><path fill="#FF6347" d="M 158.503906 209.984375 L 165.222656 225.679688 C 166.59375 228.878906 166.253906 232.378906 164.632812 235.179688 L 201.984375 274.878906 L 215.949219 344.199219 C 217.625 352.511719 224.933594 358.253906 233.105469 358.253906 C 234.25 358.253906 235.414062 358.140625 236.582031 357.90625 C 246.066406 356 252.210938 346.769531 250.300781 337.292969 L 235.351562 263.074219 C 234.707031 259.875 233.179688 256.917969 230.941406 254.539062 L 194.109375 215.398438 C 194.222656 213.308594 194.203125 210.910156 194.039062 208.136719 C 193.757812 206.042969 193.578125 203.90625 193.441406 201.753906 C 187.644531 204.058594 175.984375 207.882812 158.503906 209.984375 Z M 158.503906 209.984375"/></g><path fill="#FF6347" d="M 247.464844 211.675781 C 248.859375 212.246094 250.296875 212.515625 251.714844 212.515625 C 256.132812 212.515625 260.316406 209.894531 262.09375 205.558594 C 264.445312 199.835938 261.703125 193.292969 255.972656 190.945312 L 204.378906 169.820312 L 191.222656 127.683594 C 189.378906 121.777344 183.089844 118.476562 177.179688 120.324219 C 171.265625 122.167969 167.96875 128.449219 169.8125 134.355469 L 184.539062 181.523438 C 185.535156 184.710938 187.898438 187.285156 190.992188 188.550781 Z M 247.464844 211.675781"/><path fill="#FF6347" d="M 237.800781 57.238281 L 178.570312 77.460938 C 181.898438 93.394531 196.984375 104.347656 213.421875 102.25 C 230.699219 100.046875 242.917969 84.269531 240.710938 67.007812 C 240.265625 63.515625 239.257812 60.238281 237.800781 57.238281 Z M 237.800781 57.238281"/><path fill="#FF6347" d="M 176.296875 74.542969 L 237.304688 53.707031 C 239.585938 52.929688 240.8125 50.429688 240.035156 48.152344 C 239.253906 45.875 236.75 44.648438 234.472656 45.425781 L 232.617188 46.058594 C 226.0625 32.265625 210.050781 25.277344 195.242188 30.335938 C 180.429688 35.390625 172.050781 50.707031 175.316406 65.625 L 173.460938 66.257812 C 171.183594 67.039062 169.953125 69.539062 170.734375 71.816406 C 171.511719 74.09375 174.015625 75.320312 176.296875 74.542969 Z M 176.296875 74.542969"/><path fill="#FF6347" d="M 121.558594 187.308594 L 115.371094 190.460938 L 122.949219 205.304688 L 129.347656 202.570312 Z M 121.558594 187.308594"/><path fill="#FF6347" d="M 132.898438 187.078125 L 126.714844 190.230469 L 132.359375 201.285156 L 138.757812 198.550781 Z M 132.898438 187.078125"/><path fill="#FF6347" d="M 162 227.058594 L 153.578125 207.378906 L 125.378906 219.425781 L 133.804688 239.105469 C 135.351562 242.722656 139.542969 244.402344 143.164062 242.855469 L 158.25 236.410156 C 161.871094 234.863281 163.550781 230.675781 162 227.058594 Z M 150.917969 212.179688 C 152.472656 212.179688 153.734375 213.441406 153.734375 214.992188 C 153.734375 216.546875 152.472656 217.808594 150.917969 217.808594 C 149.363281 217.808594 148.101562 216.546875 148.101562 214.992188 C 148.101562 213.441406 149.363281 212.179688 150.917969 212.179688 Z M 150.917969 212.179688"/><path fill="#FF6347" d="M 120.898438 209.988281 C 119.144531 210.738281 118.320312 212.789062 119.074219 214.542969 C 119.824219 216.296875 121.875 217.117188 123.628906 216.367188 L 152.574219 204 C 154.328125 203.25 155.152344 201.203125 154.402344 199.449219 C 153.648438 197.695312 151.597656 196.871094 149.84375 197.621094 Z M 120.898438 209.988281"/></svg>