<svg xmlns="http://www.w3.org/2000/svg" width="384" viewBox="0 0 384 384" height="384" version="1.0"><defs><clipPath id="a"><path d="M 8.746094 40 L 16 40 L 16 61 L 8.746094 61 Z M 8.746094 40"/></clipPath><clipPath id="b"><path d="M 124 361 L 139 361 L 139 372.996094 L 124 372.996094 Z M 124 361"/></clipPath><clipPath id="c"><path d="M 303 193 L 375.496094 193 L 375.496094 235 L 303 235 Z M 303 193"/></clipPath><clipPath id="d"><path d="M 197 343 L 250 343 L 250 372.996094 L 197 372.996094 Z M 197 343"/></clipPath></defs><path fill="#FF6347" d="M 48.816406 332.644531 C 44.082031 339.78125 46.039062 349.398438 53.183594 354.125 C 55.820312 355.871094 58.796875 356.703125 61.738281 356.703125 C 66.769531 356.703125 71.707031 354.265625 74.691406 349.761719 C 92.09375 323.523438 97.585938 299.453125 97.671875 279.613281 L 60.964844 249.890625 C 68.121094 267.6875 72.394531 297.089844 48.816406 332.644531 Z M 48.816406 332.644531"/><path fill="#FF6347" d="M 96.507812 173.261719 C 89.6875 173.261719 84.078125 167.925781 83.742188 161.121094 C 83.574219 157.710938 84.746094 154.445312 87.039062 151.917969 C 89.332031 149.390625 92.472656 147.90625 95.886719 147.738281 L 110.0625 147.039062 C 110.035156 147.023438 110.007812 147.015625 109.984375 147 C 105.722656 144.578125 102.257812 141.253906 99.683594 137.394531 C 90.820312 136.195312 79.925781 139.527344 71.460938 150.5 C 55.449219 171.503906 48.519531 186.351562 42.746094 213.476562 C 41.9375 219.5 42.476562 224.28125 43.914062 228.125 C 44.671875 231.34375 46.445312 234.347656 49.210938 236.589844 L 54.929688 241.234375 L 105.34375 282.160156 L 125.699219 346.34375 C 127.796875 352.945312 133.90625 357.167969 140.492188 357.167969 C 142.042969 357.167969 143.621094 356.933594 145.179688 356.4375 C 153.351562 353.855469 157.878906 345.144531 155.289062 336.984375 L 133.53125 268.378906 C 132.617188 265.492188 130.875 262.941406 128.523438 261.03125 L 84.945312 225.65625 L 84.953125 225.652344 C 90.042969 206.195312 102.246094 186.738281 110.328125 172.597656 L 97.144531 173.246094 C 96.933594 173.257812 96.71875 173.261719 96.507812 173.261719 Z M 96.507812 173.261719"/><path fill="#FF6347" d="M 18.046875 57.519531 C 18.28125 57.722656 18.566406 57.820312 18.855469 57.820312 C 19.203125 57.820312 19.550781 57.671875 19.796875 57.386719 C 20.242188 56.867188 20.183594 56.085938 19.664062 55.636719 C 19.640625 55.621094 17.582031 53.789062 17.445312 51.222656 C 17.355469 49.5625 18.085938 47.890625 19.617188 46.257812 C 20.085938 45.757812 20.0625 44.972656 19.558594 44.503906 C 19.058594 44.035156 18.273438 44.0625 17.804688 44.5625 C 15.792969 46.707031 14.835938 48.996094 14.964844 51.359375 C 15.164062 55.011719 17.929688 57.417969 18.046875 57.519531 Z M 18.046875 57.519531"/><g clip-path="url(#a)"><path fill="#FF6347" d="M 12.71875 60.230469 C 12.960938 60.460938 13.269531 60.574219 13.578125 60.574219 C 13.902344 60.574219 14.230469 60.445312 14.476562 60.191406 C 14.949219 59.695312 14.929688 58.910156 14.433594 58.4375 C 14.402344 58.40625 11.265625 55.367188 11.230469 51.09375 C 11.207031 48.296875 12.527344 45.566406 15.152344 42.976562 C 15.640625 42.496094 15.644531 41.710938 15.164062 41.222656 C 14.679688 40.734375 13.894531 40.734375 13.410156 41.210938 C 10.289062 44.292969 8.71875 47.625 8.746094 51.113281 C 8.792969 56.421875 12.558594 60.078125 12.71875 60.230469 Z M 12.71875 60.230469"/></g><path fill="#FF6347" d="M 116.351562 146.730469 L 130.621094 146.027344 L 127.398438 117.050781 L 99.222656 110.148438 C 93.921875 123.667969 99.925781 139.171875 113.265625 145.492188 C 114.28125 145.972656 115.3125 146.378906 116.351562 146.730469 Z M 116.351562 146.730469"/><path fill="#FF6347" d="M 98.832031 107.117188 L 127.0625 114.03125 L 126.714844 110.917969 L 105.769531 93.644531 C 104.378906 95.570312 103.222656 97.695312 102.367188 100.003906 L 100.683594 99.589844 C 98.613281 99.082031 96.5 100.359375 95.992188 102.429688 C 95.480469 104.5 96.761719 106.609375 98.832031 107.117188 Z M 98.832031 107.117188"/><path fill="#FF6347" d="M 133.136719 97.667969 C 134.578125 96.867188 136.195312 96.332031 137.9375 96.136719 C 138.414062 96.082031 138.890625 96.058594 139.359375 96.058594 C 145.878906 96.058594 151.335938 100.941406 152.058594 107.421875 L 152.773438 113.863281 L 158.660156 118.714844 C 158.796875 118.449219 158.917969 118.171875 158.992188 117.867188 C 159.5 115.800781 158.21875 113.691406 156.148438 113.179688 L 154.464844 112.769531 C 156.171875 99.355469 147.574219 86.507812 134.109375 83.207031 C 128.253906 81.769531 122.375 82.367188 117.210938 84.542969 Z M 133.136719 97.667969"/><path fill="#FF6347" d="M 38.71875 65.003906 C 40.542969 66.511719 43.269531 66.25 44.773438 64.429688 L 56.949219 49.699219 L 126.679688 107.191406 C 127.078125 104.152344 128.550781 101.410156 130.75 99.402344 L 62.429688 43.074219 L 74.605469 28.347656 C 76.109375 26.523438 75.851562 23.800781 74.027344 22.296875 L 61.859375 12.265625 C 60.035156 10.761719 57.308594 11.023438 55.804688 12.84375 L 25.972656 48.925781 C 24.464844 50.746094 24.726562 53.46875 26.550781 54.972656 Z M 38.71875 65.003906"/><path fill="#FF6347" d="M 153.230469 117.933594 L 154.59375 130.203125 L 162.402344 136.640625 L 165.089844 138.859375 L 156.632812 148.539062 L 157.542969 156.703125 C 157.929688 160.191406 156.84375 163.722656 154.566406 166.394531 C 152.289062 169.066406 148.96875 170.695312 145.460938 170.867188 L 121.710938 172.035156 L 141.234375 183.851562 C 142.835938 184.816406 144.613281 185.285156 146.378906 185.285156 C 149.171875 185.285156 151.925781 184.113281 153.867188 181.886719 L 180.414062 151.492188 L 189.488281 158.972656 L 194.96875 152.347656 L 185.941406 144.90625 C 188.363281 140.867188 187.628906 135.554688 183.949219 132.351562 C 180.132812 129.023438 174.492188 129.144531 170.8125 132.433594 L 166.875 129.1875 Z M 153.230469 117.933594"/><path fill="#FF6347" d="M 149.21875 107.734375 C 148.613281 102.289062 143.691406 98.363281 138.25 98.972656 C 132.800781 99.578125 128.871094 104.480469 129.476562 109.925781 L 133.796875 148.726562 L 96.027344 150.585938 C 90.550781 150.855469 86.328125 155.507812 86.597656 160.980469 C 86.859375 166.285156 91.246094 170.410156 96.507812 170.410156 C 96.671875 170.410156 96.839844 170.40625 97.003906 170.398438 L 145.320312 168.019531 C 148.058594 167.886719 150.617188 166.628906 152.394531 164.546875 C 154.171875 162.460938 155.003906 159.738281 154.703125 157.019531 Z M 149.21875 107.734375"/><path fill="#FF6347" d="M 238.902344 279.304688 L 245.421875 274.035156 L 242.007812 267.835938 L 235.800781 269.074219 L 231.765625 273.726562 L 233.316406 279.304688 Z M 238.902344 279.304688"/><path fill="#FF6347" d="M 222.867188 285.8125 L 226.488281 281.804688 L 224.316406 277.859375 L 219.441406 277.132812 L 217.796875 281.605469 L 218.785156 285.15625 Z M 222.867188 285.8125"/><path fill="#FF6347" d="M 295.183594 230.328125 L 298.808594 226.320312 L 296.632812 222.375 L 291.761719 221.652344 L 290.117188 226.121094 L 291.101562 229.671875 Z M 295.183594 230.328125"/><path fill="#FF6347" d="M 266.214844 226.609375 L 269.835938 222.597656 L 267.664062 218.652344 L 262.792969 217.929688 L 261.144531 222.402344 L 262.132812 225.953125 Z M 266.214844 226.609375"/><path fill="#FF6347" d="M 271.285156 256.480469 L 269.167969 252.628906 L 264.410156 251.921875 L 262.800781 256.289062 L 263.765625 259.753906 L 267.75 260.398438 Z M 271.285156 256.480469"/><path fill="#FF6347" d="M 217.980469 317.0625 L 222.761719 311.765625 L 219.894531 306.554688 L 213.457031 305.601562 L 211.285156 311.507812 L 212.589844 316.195312 Z M 217.980469 317.0625"/><path fill="#FF6347" d="M 254.421875 258.226562 L 258.042969 254.214844 L 255.871094 250.269531 L 250.996094 249.546875 L 249.351562 254.019531 L 250.339844 257.570312 Z M 254.421875 258.226562"/><path fill="#FF6347" d="M 185.207031 333.492188 L 187.378906 341.296875 L 195.191406 341.296875 L 204.3125 333.925781 L 199.535156 325.253906 L 190.851562 326.988281 Z M 185.207031 333.492188"/><path fill="#FF6347" d="M 213.707031 340.988281 L 218.945312 336.035156 L 216.203125 330.210938 L 211.210938 331.378906 L 207.96875 335.746094 L 209.214844 340.988281 Z M 213.707031 340.988281"/><path fill="#FF6347" d="M 189.449219 363.292969 L 188.953125 359.0625 L 185.207031 358.347656 L 181.902344 360.03125 L 181.503906 363.492188 L 184.621094 364.753906 Z M 189.449219 363.292969"/><path fill="#FF6347" d="M 163.902344 360.03125 L 163.5 363.492188 L 166.617188 364.753906 L 171.449219 363.292969 L 170.949219 359.0625 L 167.207031 358.347656 Z M 163.902344 360.03125"/><path fill="#FF6347" d="M 111.550781 360.03125 L 111.148438 363.492188 L 114.265625 364.753906 L 119.097656 363.292969 L 118.597656 359.0625 L 114.855469 358.347656 Z M 111.550781 360.03125"/><g clip-path="url(#b)"><path fill="#FF6347" d="M 124.925781 364.480469 L 124.222656 370.578125 L 129.710938 372.804688 L 138.214844 370.226562 L 137.335938 362.777344 L 130.746094 361.523438 Z M 124.925781 364.480469"/></g><path fill="#FF6347" d="M 93.546875 360.03125 L 93.148438 363.492188 L 96.265625 364.753906 L 101.09375 363.292969 L 100.59375 359.0625 L 96.851562 358.347656 Z M 93.546875 360.03125"/><path fill="#FF6347" d="M 82.15625 361.332031 L 81.921875 363.347656 L 83.734375 364.078125 L 86.542969 363.226562 L 86.253906 360.769531 L 84.074219 360.355469 Z M 82.15625 361.332031"/><path fill="#FF6347" d="M 150.75 361.332031 L 150.515625 363.347656 L 152.328125 364.078125 L 155.136719 363.226562 L 154.847656 360.769531 L 152.671875 360.355469 Z M 150.75 361.332031"/><path fill="#FF6347" d="M 182.328125 353.902344 L 182.421875 346.828125 L 176.410156 344.847656 L 170.601562 346.902344 L 169.195312 352.515625 L 174.054688 355.273438 Z M 182.328125 353.902344"/><path fill="#FF6347" d="M 146.78125 193.359375 C 147.574219 193.359375 148.34375 193.242188 149.09375 193.007812 C 152.585938 191.917969 154.242188 188.644531 154.3125 188.507812 C 154.617188 187.894531 154.367188 187.148438 153.75 186.84375 C 153.136719 186.542969 152.394531 186.792969 152.089844 187.40625 C 152.074219 187.429688 150.804688 189.875 148.351562 190.640625 C 146.761719 191.136719 144.960938 190.84375 142.996094 189.761719 C 142.394531 189.433594 141.640625 189.652344 141.308594 190.25 C 140.980469 190.851562 141.199219 191.605469 141.796875 191.933594 C 143.523438 192.882812 145.191406 193.359375 146.78125 193.359375 Z M 146.78125 193.359375"/><path fill="#FF6347" d="M 139.210938 195.3125 C 138.855469 195.898438 139.042969 196.660156 139.632812 197.015625 C 142.335938 198.644531 144.964844 199.457031 147.488281 199.457031 C 148.472656 199.457031 149.441406 199.332031 150.386719 199.085938 C 155.53125 197.734375 158.148438 193.1875 158.257812 192.992188 C 158.59375 192.398438 158.382812 191.640625 157.785156 191.304688 C 157.191406 190.96875 156.433594 191.179688 156.09375 191.777344 C 156.074219 191.816406 153.894531 195.597656 149.757812 196.6875 C 147.050781 197.398438 144.078125 196.792969 140.914062 194.890625 C 140.324219 194.539062 139.5625 194.726562 139.210938 195.3125 Z M 139.210938 195.3125"/><path fill="#FF6347" d="M 258.457031 345.222656 L 311.222656 345.222656 L 311.222656 365.0625 L 258.457031 365.0625 Z M 258.457031 345.222656"/><path fill="#FF6347" d="M 319.835938 345.222656 L 372.601562 345.222656 L 372.601562 365.0625 L 319.835938 365.0625 Z M 319.835938 345.222656"/><path fill="#FF6347" d="M 258.457031 292.425781 L 311.222656 292.425781 L 311.222656 312.261719 L 258.457031 312.261719 Z M 258.457031 292.425781"/><path fill="#FF6347" d="M 319.835938 292.425781 L 372.601562 292.425781 L 372.601562 312.261719 L 319.835938 312.261719 Z M 319.835938 292.425781"/><path fill="#FF6347" d="M 319.835938 239.628906 L 372.601562 239.628906 L 372.601562 259.464844 L 319.835938 259.464844 Z M 319.835938 239.628906"/><path fill="#FF6347" d="M 223.460938 318.824219 L 276.226562 318.824219 L 276.226562 338.660156 L 223.460938 338.660156 Z M 223.460938 318.824219"/><path fill="#FF6347" d="M 284.839844 318.824219 L 337.605469 318.824219 L 337.605469 338.660156 L 284.839844 338.660156 Z M 284.839844 318.824219"/><path fill="#FF6347" d="M 346.21875 318.824219 L 372.601562 318.824219 L 372.601562 338.660156 L 346.21875 338.660156 Z M 346.21875 318.824219"/><path fill="#FF6347" d="M 284.839844 266.027344 L 337.605469 266.027344 L 337.605469 285.863281 L 284.839844 285.863281 Z M 284.839844 266.027344"/><path fill="#FF6347" d="M 346.21875 266.027344 L 372.601562 266.027344 L 372.601562 285.863281 L 346.21875 285.863281 Z M 346.21875 266.027344"/><path fill="#FF6347" d="M 252.066406 269.179688 L 274.972656 263.542969 L 279.527344 282 L 256.625 287.636719 Z M 252.066406 269.179688"/><path fill="#FF6347" d="M 264.417969 245.21875 L 271.835938 227.710938 L 310.253906 243.941406 L 302.835938 261.449219 Z M 264.417969 245.21875"/><g clip-path="url(#c)"><path fill="#FF6347" d="M 346.101562 231.257812 L 345.671875 220.464844 L 363.746094 234.5 L 375.433594 219.492188 L 342.5 193.921875 L 330.816406 208.929688 L 335.605469 212.644531 L 303.667969 213.910156 L 304.421875 232.90625 Z M 346.101562 231.257812"/></g><path fill="#FF6347" d="M 306.328125 198.273438 L 332.25 165.636719 L 347.164062 177.449219 L 321.246094 210.089844 Z M 306.328125 198.273438"/><path fill="#FF6347" d="M 346.820312 155.597656 L 365.414062 151.535156 L 374.328125 192.230469 L 355.734375 196.292969 Z M 346.820312 155.597656"/><path fill="#FF6347" d="M 225.996094 295.628906 L 248.898438 289.992188 L 253.453125 308.453125 L 230.550781 314.089844 Z M 225.996094 295.628906"/><g clip-path="url(#d)"><path fill="#FF6347" d="M 241.195312 365.0625 L 249.84375 365.0625 L 249.84375 345.222656 L 216.386719 345.222656 L 216.265625 344.183594 L 212.523438 343.472656 L 209.21875 345.152344 L 209.207031 345.222656 L 197.078125 345.222656 L 197.078125 365.0625 L 202.96875 365.0625 L 202.816406 366.386719 L 205.933594 367.648438 L 210.171875 366.363281 L 211.019531 367.242188 L 231.867188 372.914062 Z M 241.195312 365.0625"/></g></svg>