<svg xmlns="http://www.w3.org/2000/svg" width="384" viewBox="0 0 384 384" height="384" version="1.0"><defs><clipPath id="a"><path d="M 44 73.65625 L 209 73.65625 L 209 137 L 44 137 Z M 44 73.65625"/></clipPath><clipPath id="b"><path d="M 250 228 L 333 228 L 333 310.65625 L 250 310.65625 Z M 250 228"/></clipPath><clipPath id="c"><path d="M 22 228 L 105 228 L 105 310.65625 L 22 310.65625 Z M 22 228"/></clipPath></defs><g clip-path="url(#a)"><path fill="#FF6347" d="M 188.210938 108.757812 L 165.734375 97.640625 L 130.617188 91.792969 L 108.140625 73.65625 L 64.128906 101.734375 L 44.074219 136.289062 L 208.78125 136.289062 Z M 188.210938 108.757812"/></g><path fill="#FF6347" d="M 241.753906 267.0625 C 243.082031 240.679688 264.863281 219.695312 291.542969 219.695312 C 318.222656 219.695312 340.007812 240.679688 341.335938 267.0625 L 372.3125 267.0625 L 372.3125 261.730469 L 383.722656 261.730469 L 383.722656 242.6875 L 372.3125 242.6875 L 372.3125 189.867188 L 353.292969 134.507812 L 254.066406 134.507812 L 219.613281 267.066406 L 241.753906 267.066406 Z M 279.496094 142.125 L 347.863281 142.125 L 364.707031 191.140625 L 364.707031 201.546875 L 356.828125 201.546875 L 340.558594 190.914062 L 339.445312 192.621094 L 353.097656 201.546875 L 311.773438 201.546875 C 312.90625 196.023438 314.875 190.625 316.253906 186.421875 C 316.355469 186.1875 316.445312 185.945312 316.527344 185.703125 C 320.300781 188.394531 325.855469 191.152344 332.792969 191.152344 C 333.257812 191.152344 333.730469 191.136719 334.207031 191.113281 L 330.4375 196.894531 L 333.472656 198.878906 L 339.046875 190.328125 C 340.128906 189.816406 340.832031 188.738281 340.863281 187.542969 L 343.878906 182.917969 L 340.839844 180.933594 L 338.566406 184.421875 C 338.089844 184.285156 337.574219 184.242188 337.050781 184.351562 C 324.484375 186.960938 316.28125 177.117188 315.917969 176.671875 C 315.632812 176.316406 315.285156 176.046875 314.90625 175.847656 C 314.441406 175.421875 313.914062 175.066406 313.304688 174.832031 C 309.5 173.359375 303.542969 174.78125 300.386719 181.234375 C 296.824219 188.625 295.238281 193.996094 294.753906 201.546875 L 265.800781 201.546875 Z M 279.496094 142.125"/><path fill="#FF6347" d="M 63.300781 219.695312 C 81.082031 219.695312 96.679688 229.023438 105.503906 243.050781 L 187.117188 271.105469 L 194.496094 273.644531 L 192.335938 281.996094 L 190.394531 289.484375 L 205.125 293.320312 L 207.058594 285.835938 L 231.625 190.902344 L 194.546875 190.902344 L 194.546875 186.0625 L 232.878906 186.0625 L 234.601562 179.40625 L 194.546875 179.40625 L 194.546875 174.566406 L 235.851562 174.566406 L 248.769531 124.648438 L 354.167969 124.648438 L 360.644531 108.433594 L 346.515625 102.773438 L 343.863281 109.410156 L 237.007812 109.410156 L 228.933594 140.601562 L 23.171875 140.601562 L 0.277344 206.878906 L 46.265625 222.6875 C 51.582031 220.753906 57.316406 219.695312 63.300781 219.695312 Z M 63.300781 219.695312"/><g clip-path="url(#b)"><path fill="#FF6347" d="M 291.546875 228.609375 C 268.964844 228.609375 250.589844 247.003906 250.589844 269.617188 C 250.589844 292.226562 268.964844 310.625 291.546875 310.625 C 314.128906 310.625 332.496094 292.226562 332.496094 269.617188 C 332.496094 247.003906 314.128906 228.609375 291.546875 228.609375 Z M 314.691406 269.613281 C 314.691406 282.398438 304.308594 292.796875 291.546875 292.796875 C 278.777344 292.796875 268.394531 282.398438 268.394531 269.613281 C 268.394531 256.835938 278.777344 246.4375 291.546875 246.4375 C 304.308594 246.4375 314.691406 256.839844 314.691406 269.613281 Z M 314.691406 269.613281"/></g><g clip-path="url(#c)"><path fill="#FF6347" d="M 63.304688 228.609375 C 40.722656 228.609375 22.347656 247.003906 22.347656 269.617188 C 22.347656 292.226562 40.722656 310.625 63.304688 310.625 C 85.886719 310.625 104.253906 292.226562 104.253906 269.617188 C 104.253906 247.003906 85.886719 228.609375 63.304688 228.609375 Z M 63.304688 292.796875 C 50.535156 292.796875 40.152344 282.398438 40.152344 269.613281 C 40.152344 256.835938 50.535156 246.4375 63.304688 246.4375 C 76.066406 246.4375 86.449219 256.835938 86.449219 269.613281 C 86.449219 282.398438 76.066406 292.796875 63.304688 292.796875 Z M 63.304688 292.796875"/></g><path fill="#FF6347" d="M 323.351562 154.222656 C 324.03125 154.308594 324.699219 154.460938 325.347656 154.675781 C 325.996094 154.890625 326.621094 155.167969 327.214844 155.507812 C 327.808594 155.847656 328.367188 156.242188 328.882812 156.691406 C 329.402344 157.136719 329.871094 157.632812 330.289062 158.175781 C 330.710938 158.714844 331.074219 159.292969 331.382812 159.90625 C 331.6875 160.519531 331.933594 161.15625 332.113281 161.816406 C 332.296875 162.476562 332.410156 163.148438 332.460938 163.835938 C 332.507812 164.519531 332.492188 165.199219 332.40625 165.878906 C 332.320312 166.5625 332.171875 167.226562 331.953125 167.875 C 331.738281 168.527344 331.460938 169.152344 331.125 169.746094 C 330.785156 170.34375 330.390625 170.898438 329.941406 171.417969 C 329.496094 171.9375 329 172.40625 328.460938 172.828125 C 327.921875 173.246094 327.34375 173.613281 326.730469 173.917969 C 326.121094 174.226562 325.484375 174.46875 324.824219 174.652344 C 324.164062 174.835938 323.492188 174.949219 322.808594 175 C 322.125 175.046875 321.445312 175.03125 320.765625 174.945312 C 320.085938 174.859375 319.421875 174.710938 318.773438 174.492188 C 318.121094 174.277344 317.5 174 316.902344 173.660156 C 316.308594 173.320312 315.753906 172.929688 315.234375 172.480469 C 314.71875 172.03125 314.25 171.535156 313.828125 170.996094 C 313.40625 170.453125 313.042969 169.875 312.738281 169.261719 C 312.429688 168.648438 312.1875 168.011719 312.003906 167.351562 C 311.824219 166.691406 311.707031 166.019531 311.660156 165.335938 C 311.609375 164.652344 311.628906 163.96875 311.710938 163.289062 C 311.796875 162.609375 311.949219 161.941406 312.164062 161.292969 C 312.378906 160.640625 312.65625 160.019531 312.996094 159.421875 C 313.332031 158.828125 313.726562 158.269531 314.175781 157.75 C 314.625 157.234375 315.117188 156.761719 315.65625 156.34375 C 316.199219 155.921875 316.773438 155.558594 317.386719 155.25 C 318 154.941406 318.636719 154.699219 319.296875 154.515625 C 319.957031 154.335938 320.628906 154.21875 321.308594 154.171875 C 321.992188 154.121094 322.675781 154.140625 323.351562 154.222656 Z M 323.351562 154.222656"/></svg>