<svg xmlns="http://www.w3.org/2000/svg" width="384" viewBox="0 0 384 384" height="384" version="1.0"><defs><clipPath id="a"><path d="M 70 10.027344 L 151 10.027344 L 151 54 L 70 54 Z M 70 10.027344"/></clipPath><clipPath id="b"><path d="M 233 10.027344 L 314 10.027344 L 314 54 L 233 54 Z M 233 10.027344"/></clipPath></defs><path fill="#FF6347" d="M 148.527344 85.5625 L 202.285156 85.757812 L 199.855469 95.191406 L 203.71875 96.339844 C 204.378906 96.53125 205.03125 96.710938 205.679688 96.886719 L 210.09375 79.722656 L 142.769531 79.480469 C 144.6875 81.054688 146.625 83.046875 148.527344 85.5625 Z M 148.527344 85.5625"/><path fill="#FF6347" d="M 128.195312 73.90625 C 131.386719 73.90625 135.585938 74.664062 140.054688 77.5 C 142.695312 72.660156 144.195312 67.105469 144.195312 61.199219 C 144.195312 59.644531 144.082031 58.117188 143.882812 56.617188 L 76.277344 56.617188 C 76.078125 58.117188 75.964844 59.644531 75.964844 61.199219 C 75.964844 65.703125 76.847656 70 78.433594 73.9375 L 127.082031 73.9375 C 127.4375 73.917969 127.808594 73.90625 128.195312 73.90625 Z M 128.195312 73.90625"/><g clip-path="url(#a)"><path fill="#FF6347" d="M 145.679688 53.28125 L 146.285156 53.28125 C 148.8125 53.28125 150.859375 51.234375 150.859375 48.707031 C 150.859375 46.183594 148.8125 44.132812 146.285156 44.132812 L 145.652344 44.132812 C 145.355469 32.484375 139.367188 22.253906 130.371094 16.097656 L 130.371094 18.890625 C 130.371094 20.886719 128.75 22.511719 126.75 22.511719 C 124.75 22.511719 123.128906 20.886719 123.128906 18.890625 L 123.128906 12.308594 C 120.316406 11.230469 117.332031 10.5 114.222656 10.179688 L 114.222656 18.890625 C 114.222656 20.886719 112.605469 22.511719 110.605469 22.511719 C 108.601562 22.511719 106.980469 20.890625 106.980469 18.890625 L 106.980469 10.179688 C 103.875 10.5 100.890625 11.230469 98.074219 12.308594 L 98.074219 18.890625 C 98.074219 20.886719 96.457031 22.511719 94.453125 22.511719 C 92.457031 22.511719 90.835938 20.890625 90.835938 18.890625 L 90.835938 16.101562 C 81.835938 22.253906 75.851562 32.484375 75.550781 44.132812 L 74.917969 44.132812 C 72.390625 44.132812 70.34375 46.183594 70.34375 48.707031 C 70.34375 51.238281 72.390625 53.28125 74.917969 53.28125 Z M 145.679688 53.28125"/></g><path fill="#FF6347" d="M 53.863281 172.410156 C 53.960938 172.433594 54.066406 172.449219 54.164062 172.472656 L 54.164062 125.796875 L 57.5 125.796875 L 57.5 207.433594 L 46.03125 352.605469 C 45.214844 362.925781 52.925781 371.949219 63.242188 372.761719 C 73.566406 373.578125 82.59375 365.878906 83.410156 355.558594 L 94.101562 220.25 L 102.875 220.25 L 113.570312 355.558594 C 114.382812 365.878906 123.414062 373.578125 133.734375 372.761719 C 144.054688 371.949219 151.761719 362.925781 150.949219 352.605469 L 139.523438 208.007812 L 139.523438 128.273438 C 140.5625 128.863281 141.6875 129.285156 142.859375 129.554688 L 142.859375 158.316406 L 145.679688 159.605469 C 154.339844 163.5625 172.273438 165.015625 181.773438 165.519531 L 176.25 187.003906 L 143.164062 176.582031 L 143.164062 182.941406 L 180.53125 194.707031 L 188.011719 165.617188 C 193.800781 164.882812 198.382812 160.058594 198.601562 154.039062 C 198.753906 149.855469 196.765625 146.089844 193.621094 143.796875 L 197.148438 130.089844 C 195.25 129.558594 193.3125 129.003906 191.320312 128.40625 L 187.933594 141.570312 C 187.597656 141.53125 187.261719 141.496094 186.917969 141.480469 C 178.542969 141.175781 168.40625 140.246094 161.789062 139.082031 C 160.5625 129.949219 159.046875 121.804688 157.273438 114.785156 C 157.273438 114.785156 157.273438 114.78125 157.269531 114.78125 C 148.679688 80.828125 134.222656 77.148438 127.1875 77.578125 L 69.425781 77.578125 C 66.296875 77.464844 61.292969 78.070312 55.835938 81.789062 C 55.433594 82.0625 55.03125 82.339844 54.625 82.648438 C 41.726562 92.433594 34.394531 114.539062 32.203125 150.222656 C 31.855469 155.871094 33.960938 161.167969 38.132812 165.132812 C 41.988281 168.800781 47.625 171.066406 53.863281 172.410156 Z M 53.863281 172.410156"/><path fill="#FF6347" d="M 202.289062 101.132812 L 182.140625 95.136719 C 180.140625 94.539062 178.019531 95.6875 177.425781 97.683594 C 176.828125 99.683594 177.976562 101.800781 179.976562 102.398438 L 192.769531 106.207031 C 189.6875 112.710938 188.425781 122.3125 192.453125 123.523438 C 204.46875 127.144531 213.613281 129.148438 220.605469 130.140625 C 224.777344 130.730469 228.183594 130.964844 230.972656 130.964844 C 235.328125 130.964844 238.171875 130.398438 240.085938 129.753906 C 240.359375 129.714844 240.621094 129.648438 240.886719 129.589844 C 242.125 129.324219 243.3125 128.890625 244.402344 128.273438 L 244.402344 208.007812 L 232.976562 352.605469 C 232.160156 362.925781 239.871094 371.945312 250.1875 372.757812 C 260.511719 373.574219 269.542969 365.875 270.355469 355.554688 L 280.96875 221.257812 L 289.902344 221.257812 L 300.515625 355.554688 C 301.332031 365.875 310.363281 373.574219 320.683594 372.761719 C 331 371.945312 338.710938 362.925781 337.894531 352.605469 L 326.425781 207.433594 L 326.425781 139.121094 L 326.425781 139.125 L 326.425781 124.988281 L 329.425781 124.988281 L 329.425781 172.539062 C 329.636719 172.492188 329.851562 172.457031 330.0625 172.410156 C 336.300781 171.0625 341.9375 168.800781 345.792969 165.132812 C 349.960938 161.164062 352.066406 155.871094 351.71875 150.222656 C 349.53125 114.535156 342.195312 92.429688 329.300781 82.644531 C 328.894531 82.335938 328.492188 82.058594 328.089844 81.785156 C 322.628906 78.066406 317.625 77.460938 314.496094 77.574219 L 256.738281 77.574219 C 253.027344 77.347656 247.25 78.269531 241.359375 84.167969 C 237.042969 88.492188 232.664062 95.503906 228.992188 106.691406 C 226.746094 106.511719 223.804688 106.082031 220.441406 105.453125 C 215.035156 104.441406 208.574219 102.921875 202.289062 101.132812 Z M 202.289062 101.132812"/><path fill="#FF6347" d="M 256.84375 73.9375 L 305.492188 73.9375 C 307.078125 70 307.960938 65.703125 307.960938 61.199219 C 307.960938 59.644531 307.847656 58.117188 307.644531 56.617188 L 240.042969 56.617188 C 239.839844 58.117188 239.726562 59.644531 239.726562 61.199219 C 239.726562 67.109375 241.230469 72.667969 243.875 77.511719 C 248.339844 74.679688 252.539062 73.90625 255.730469 73.90625 C 256.117188 73.90625 256.488281 73.917969 256.84375 73.9375 Z M 256.84375 73.9375"/><g clip-path="url(#b)"><path fill="#FF6347" d="M 308.394531 53.28125 L 309.003906 53.28125 C 311.53125 53.28125 313.578125 51.234375 313.578125 48.707031 C 313.578125 46.183594 311.53125 44.132812 309.003906 44.132812 L 308.371094 44.132812 C 308.070312 32.484375 302.085938 22.253906 293.085938 16.101562 L 293.085938 18.890625 C 293.085938 20.886719 291.46875 22.511719 289.46875 22.511719 C 287.464844 22.511719 285.84375 20.886719 285.84375 18.890625 L 285.84375 12.308594 C 283.03125 11.230469 280.046875 10.5 276.941406 10.183594 L 276.941406 18.890625 C 276.941406 20.890625 275.320312 22.511719 273.316406 22.511719 C 271.320312 22.511719 269.699219 20.890625 269.699219 18.890625 L 269.699219 10.179688 C 266.589844 10.5 263.605469 11.230469 260.792969 12.308594 L 260.792969 18.890625 C 260.792969 20.886719 259.171875 22.511719 257.171875 22.511719 C 255.171875 22.511719 253.550781 20.890625 253.550781 18.890625 L 253.550781 16.101562 C 244.550781 22.253906 238.566406 32.484375 238.265625 44.132812 L 237.636719 44.132812 C 235.105469 44.132812 233.058594 46.183594 233.058594 48.707031 C 233.058594 51.238281 235.105469 53.28125 237.636719 53.28125 Z M 308.394531 53.28125"/></g></svg>