<svg xmlns="http://www.w3.org/2000/svg" width="384" viewBox="0 0 384 384" height="384" version="1.0"><defs><clipPath id="a"><path d="M 61 45.382812 L 82 45.382812 L 82 101 L 61 101 Z M 61 45.382812"/></clipPath><clipPath id="b"><path d="M 118 45.382812 L 140 45.382812 L 140 101 L 118 101 Z M 118 45.382812"/></clipPath><clipPath id="c"><path d="M 176 45.382812 L 197 45.382812 L 197 101 L 176 101 Z M 176 45.382812"/></clipPath><clipPath id="d"><path d="M 233 45.382812 L 255 45.382812 L 255 101 L 233 101 Z M 233 45.382812"/></clipPath><clipPath id="e"><path d="M 236 193 L 380.644531 193 L 380.644531 338.289062 L 236 338.289062 Z M 236 193"/></clipPath></defs><g clip-path="url(#a)"><path fill="#FF6347" d="M 81.578125 90.464844 C 81.578125 96.125 76.957031 100.746094 71.296875 100.746094 C 65.601562 100.746094 61.015625 96.125 61.015625 90.464844 L 61.015625 55.632812 C 61.015625 49.96875 65.601562 45.347656 71.296875 45.347656 C 76.957031 45.347656 81.578125 49.96875 81.578125 55.632812 L 81.578125 90.464844"/></g><g clip-path="url(#b)"><path fill="#FF6347" d="M 139.222656 90.464844 C 139.222656 96.125 134.601562 100.746094 128.941406 100.746094 C 123.246094 100.746094 118.625 96.125 118.625 90.464844 L 118.625 55.632812 C 118.625 49.96875 123.246094 45.347656 128.941406 45.347656 C 134.601562 45.347656 139.222656 49.96875 139.222656 55.632812 L 139.222656 90.464844"/></g><g clip-path="url(#c)"><path fill="#FF6347" d="M 196.832031 90.464844 C 196.832031 96.125 192.210938 100.746094 186.550781 100.746094 C 180.855469 100.746094 176.234375 96.125 176.234375 90.464844 L 176.234375 55.632812 C 176.234375 49.96875 180.855469 45.347656 186.550781 45.347656 C 192.210938 45.347656 196.832031 49.96875 196.832031 55.632812 L 196.832031 90.464844"/></g><g clip-path="url(#d)"><path fill="#FF6347" d="M 254.476562 90.464844 C 254.476562 96.125 249.851562 100.746094 244.191406 100.746094 C 238.5 100.746094 233.875 96.125 233.875 90.464844 L 233.875 55.632812 C 233.875 49.96875 238.5 45.347656 244.191406 45.347656 C 249.851562 45.347656 254.476562 49.96875 254.476562 55.632812 L 254.476562 90.464844"/></g><path fill="#FF6347" d="M 37.335938 152.429688 L 82.148438 152.429688 L 82.148438 180.933594 L 37.335938 180.933594 L 37.335938 152.429688"/><path fill="#FF6347" d="M 102.679688 152.429688 L 147.460938 152.429688 L 147.460938 180.933594 L 102.679688 180.933594 L 102.679688 152.429688"/><path fill="#FF6347" d="M 167.992188 152.429688 L 212.808594 152.429688 L 212.808594 180.933594 L 167.992188 180.933594 L 167.992188 152.429688"/><path fill="#FF6347" d="M 233.339844 152.429688 L 278.15625 152.429688 L 278.15625 180.933594 L 233.339844 180.933594 L 233.339844 152.429688"/><path fill="#FF6347" d="M 37.335938 197.679688 L 82.148438 197.679688 L 82.148438 226.183594 L 37.335938 226.183594 L 37.335938 197.679688"/><path fill="#FF6347" d="M 102.679688 197.679688 L 147.460938 197.679688 L 147.460938 226.183594 L 102.679688 226.183594 L 102.679688 197.679688"/><path fill="#FF6347" d="M 167.992188 197.679688 L 212.808594 197.679688 L 212.808594 226.183594 L 167.992188 226.183594 L 167.992188 197.679688"/><path fill="#FF6347" d="M 37.335938 242.964844 L 82.148438 242.964844 L 82.148438 271.46875 L 37.335938 271.46875 L 37.335938 242.964844"/><path fill="#FF6347" d="M 102.679688 242.964844 L 147.460938 242.964844 L 147.460938 271.46875 L 102.679688 271.46875 L 102.679688 242.964844"/><path fill="#FF6347" d="M 167.992188 242.964844 L 212.808594 242.964844 L 212.808594 271.46875 L 167.992188 271.46875 L 167.992188 242.964844"/><g clip-path="url(#e)"><path fill="#FF6347" d="M 308.433594 325.898438 C 275.410156 325.898438 248.546875 299.066406 248.546875 266.078125 C 248.546875 233.050781 275.410156 206.1875 308.433594 206.1875 C 341.425781 206.1875 368.285156 233.050781 368.285156 266.078125 C 368.285156 299.066406 341.425781 325.898438 308.433594 325.898438 Z M 308.433594 193.828125 C 268.609375 193.828125 236.21875 226.21875 236.21875 266.078125 C 236.21875 305.867188 268.609375 338.289062 308.433594 338.289062 C 348.257812 338.289062 380.644531 305.867188 380.644531 266.078125 C 380.644531 226.21875 348.257812 193.828125 308.433594 193.828125"/></g><path fill="#FF6347" d="M 314.597656 251.773438 L 314.597656 224.710938 C 314.597656 221.292969 311.816406 218.546875 308.433594 218.546875 C 305.015625 218.546875 302.238281 221.292969 302.238281 224.710938 L 302.238281 251.773438 C 296.742188 254.1875 292.890625 259.679688 292.890625 266.078125 C 292.890625 267.113281 292.992188 268.152344 293.195312 269.15625 L 277.183594 285.167969 C 273.835938 288.515625 273.835938 293.910156 277.183594 297.292969 C 280.53125 300.640625 285.992188 300.640625 289.308594 297.292969 L 305.316406 281.28125 C 306.324219 281.484375 307.363281 281.617188 308.433594 281.617188 C 317.007812 281.617188 323.972656 274.617188 323.972656 266.078125 C 323.972656 259.679688 320.121094 254.1875 314.597656 251.773438"/><path fill="#FF6347" d="M 28.089844 291.363281 C 21.257812 291.363281 15.730469 285.804688 15.730469 279.003906 L 15.730469 128.246094 L 299.757812 128.246094 L 299.757812 181.066406 C 302.605469 180.800781 305.484375 180.632812 308.433594 180.632812 C 309.640625 180.632812 310.878906 180.765625 312.117188 180.832031 L 312.117188 85.105469 C 312.117188 71.472656 301.03125 60.386719 287.398438 60.386719 L 258.292969 60.386719 L 258.292969 90.832031 C 258.292969 98.636719 251.960938 104.96875 244.191406 104.96875 C 236.355469 104.96875 230.058594 98.636719 230.058594 90.832031 L 230.058594 60.386719 L 200.683594 60.386719 L 200.683594 90.832031 C 200.683594 98.671875 194.351562 104.96875 186.550781 104.96875 C 178.746094 104.96875 172.449219 98.671875 172.449219 90.832031 L 172.449219 60.386719 L 143.039062 60.386719 L 143.039062 90.832031 C 143.039062 98.671875 136.742188 104.96875 128.941406 104.96875 C 121.136719 104.96875 114.804688 98.671875 114.804688 90.832031 L 114.804688 60.386719 L 85.398438 60.386719 L 85.398438 90.832031 C 85.398438 98.671875 79.101562 104.96875 71.296875 104.96875 C 63.492188 104.96875 57.164062 98.671875 57.164062 90.832031 L 57.164062 60.386719 L 28.089844 60.386719 C 14.457031 60.386719 3.371094 71.472656 3.371094 85.105469 L 3.371094 279.003906 C 3.371094 292.636719 14.457031 303.722656 28.089844 303.722656 L 231.898438 303.722656 C 229.921875 299.738281 228.183594 295.652344 226.875 291.363281 L 28.089844 291.363281"/></svg>