<svg xmlns="http://www.w3.org/2000/svg" width="384" viewBox="0 0 384 384" height="384" version="1.0"><defs><clipPath id="a"><path d="M 7 49.875 L 377 49.875 L 377 334.125 L 7 334.125 Z M 7 49.875"/></clipPath></defs><path fill="#FF6347" d="M 192.335938 107.703125 C 204.0625 107.703125 213.605469 98.15625 213.605469 86.425781 C 213.605469 74.695312 204.0625 65.152344 192.335938 65.152344 C 180.609375 65.152344 171.066406 74.695312 171.066406 86.425781 C 171.066406 98.15625 180.609375 107.703125 192.335938 107.703125"/><path fill="#FF6347" d="M 73.734375 106.652344 C 85.460938 106.652344 95 97.109375 95 85.378906 C 95 73.648438 85.460938 64.105469 73.734375 64.105469 C 62.003906 64.105469 52.460938 73.648438 52.460938 85.378906 C 52.460938 97.109375 62.003906 106.652344 73.734375 106.652344"/><path fill="#FF6347" d="M 310.164062 106.644531 C 311.335938 106.644531 312.515625 106.550781 313.683594 106.359375 C 322.472656 104.914062 329.617188 97.773438 331.054688 88.984375 C 332.097656 82.621094 330.410156 76.453125 326.300781 71.617188 C 321.480469 65.933594 314.007812 63.167969 306.480469 64.402344 C 297.695312 65.84375 290.550781 72.988281 289.109375 81.777344 C 288.066406 88.140625 289.753906 94.304688 293.863281 99.144531 C 297.910156 103.910156 303.851562 106.644531 310.164062 106.644531"/><g clip-path="url(#a)"><path fill="#FF6347" d="M 375.621094 211.589844 L 355.328125 141.660156 C 351.976562 127.777344 340.1875 117.277344 327.234375 116.691406 L 326.730469 116.683594 L 302.613281 116.863281 C 302.292969 116.878906 301.945312 116.882812 301.59375 116.882812 C 294.621094 116.882812 288.371094 114.292969 284 109.582031 L 278.628906 103.804688 L 267.324219 59.464844 C 265.90625 53.90625 260.9375 49.871094 255.453125 49.871094 L 255.035156 49.882812 C 251.207031 50.042969 247.867188 51.792969 245.628906 54.800781 C 243.421875 57.765625 245.4375 57.390625 244.871094 56.339844 C 244.238281 55.160156 240.753906 54.828125 238.878906 55.765625 C 237.890625 56.257812 236.742188 56.6875 236.058594 59.246094 L 224.195312 103.738281 L 213.925781 115.996094 C 213.023438 116.960938 206.945312 118.792969 190.421875 118.792969 C 176.109375 118.792969 173.613281 117.300781 173.1875 116.84375 L 161.207031 103.949219 L 149.925781 59.714844 C 149.15625 56.691406 147.046875 56.054688 146.4375 55.859375 C 143.441406 54.886719 140.410156 56.613281 139.753906 57.050781 C 138.496094 57.898438 140.777344 58.535156 139.039062 55.703125 C 137.300781 52.867188 134.550781 50.90625 131.296875 50.179688 C 130.519531 50.007812 129.710938 49.917969 128.898438 49.917969 C 123.351562 49.917969 118.109375 54.066406 116.707031 59.570312 L 105.429688 103.804688 L 100.054688 109.582031 C 95.683594 114.292969 89.433594 116.882812 82.453125 116.882812 C 82.101562 116.882812 81.75 116.875 81.304688 116.863281 L 57.324219 116.683594 L 56.753906 116.695312 C 43.863281 117.277344 32.09375 127.722656 28.796875 141.402344 L 8.449219 211.53125 C 6.574219 218 10.164062 225.117188 16.289062 227.070312 C 17.503906 227.457031 18.757812 227.65625 20.011719 227.65625 C 25.402344 227.65625 30.214844 224.035156 31.742188 218.78125 L 44.050781 171.804688 C 44.050781 172.195312 44.179688 211.09375 44.371094 213.546875 L 40.980469 320.503906 C 40.753906 327.625 46.363281 333.597656 53.527344 333.824219 L 53.894531 333.828125 C 60.902344 333.828125 66.570312 328.335938 66.792969 321.324219 L 69.429688 237.96875 C 71.875 238.253906 73.601562 238.253906 76.097656 237.960938 L 77.726562 321.3125 C 77.863281 328.296875 83.652344 333.976562 90.628906 333.976562 C 90.628906 333.976562 90.648438 333.976562 90.660156 333.976562 C 90.660156 333.976562 90.871094 333.972656 90.878906 333.972656 C 94.714844 333.898438 98.265625 332.164062 100.714844 329.125 C 102.703125 326.660156 103.59375 323.488281 103.535156 320.320312 L 103.371094 311.6875 C 102.894531 286.746094 101.441406 210.835938 101.4375 209.472656 C 101.4375 209.015625 101.390625 155.472656 101.335938 145.535156 C 101.332031 144.496094 101.71875 143.511719 102.425781 142.757812 C 107.140625 137.730469 125.335938 118.21875 125.335938 118.21875 C 125.632812 117.898438 125.894531 117.578125 126.148438 117.253906 C 126.261719 117.105469 126.363281 116.945312 126.445312 116.777344 C 126.4375 116.792969 126.375 116.941406 126.316406 117.019531 C 126.496094 116.777344 126.648438 116.550781 126.816406 116.28125 L 126.984375 116.007812 C 127.117188 115.785156 127.226562 115.570312 127.359375 115.320312 L 127.523438 114.984375 C 127.628906 114.761719 127.710938 114.558594 127.832031 114.234375 L 128.179688 113.222656 C 128.203125 113.148438 128.226562 113.074219 128.246094 113 C 128.246094 113 133.363281 93.445312 133.484375 93.917969 L 138.4375 113.3125 L 138.808594 114.414062 C 138.941406 114.75 139.019531 114.929688 139.144531 115.199219 L 139.28125 115.46875 C 139.410156 115.730469 139.519531 115.929688 139.675781 116.199219 L 139.847656 116.480469 C 139.992188 116.707031 140.148438 116.933594 140.308594 117.15625 C 140.328125 117.179688 140.339844 117.199219 140.359375 117.21875 C 140.398438 117.28125 140.441406 117.34375 140.488281 117.402344 C 140.71875 117.699219 140.960938 117.992188 141.230469 118.289062 L 142.363281 119.503906 C 146.191406 123.617188 158.660156 137.007812 163.433594 142.117188 C 164.640625 143.410156 165.300781 145.089844 165.292969 146.855469 C 165.257812 154.429688 165.222656 176.15625 165.191406 192.746094 L 165.191406 193.960938 C 165.167969 207.390625 165.160156 213.0625 165.152344 213.417969 L 163.214844 319.628906 C 163.1875 321.128906 163.292969 322.640625 163.707031 324.078125 C 165.625 330.710938 171.398438 334.121094 176.003906 334.121094 C 182.984375 334.121094 188.773438 328.441406 188.910156 321.460938 L 190.539062 238.109375 C 192.976562 238.394531 194.78125 238.394531 197.199219 238.117188 L 199.84375 321.46875 C 200.066406 328.484375 205.730469 333.976562 212.789062 333.976562 L 213.167969 333.96875 C 220.277344 333.746094 225.878906 327.769531 225.652344 320.652344 L 222.261719 213.691406 L 222.285156 213.492188 C 222.414062 211.640625 223.015625 175.414062 223.492188 144.953125 C 223.515625 143.367188 224.085938 141.847656 225.105469 140.628906 L 244.644531 117.3125 C 245.160156 116.683594 245.589844 116.050781 246.039062 115.226562 L 246.148438 115.015625 C 246.242188 114.824219 246.34375 114.613281 246.460938 114.34375 L 246.640625 113.910156 C 246.703125 113.75 246.765625 113.574219 246.828125 113.390625 C 246.890625 113.203125 246.949219 113.015625 247.015625 112.785156 C 247.042969 112.710938 247.066406 112.636719 247.085938 112.558594 L 251.289062 96.796875 C 251.417969 96.3125 255.800781 112.976562 255.800781 112.976562 L 255.875 113.210938 C 255.882812 113.230469 255.929688 113.398438 255.9375 113.417969 L 256.140625 114.035156 C 256.148438 114.054688 256.210938 114.199219 256.273438 114.351562 L 256.265625 114.355469 C 256.347656 114.554688 256.425781 114.761719 256.5625 115.054688 L 256.671875 115.269531 C 256.839844 115.59375 256.949219 115.796875 257.089844 116.035156 L 257.253906 116.308594 C 257.421875 116.570312 257.574219 116.792969 257.734375 117.015625 L 257.890625 117.226562 C 258.164062 117.585938 258.429688 117.90625 258.699219 118.1875 L 278.402344 139.394531 C 280.691406 141.855469 281.972656 145.066406 282.003906 148.425781 C 282.125 161.683594 282.585938 214.003906 282.578125 215.203125 L 280.511719 320.808594 C 280.445312 324.253906 281.726562 327.519531 284.121094 330.011719 C 286.511719 332.5 289.726562 333.90625 293.199219 333.972656 L 293.398438 333.976562 L 293.425781 333.976562 C 300.40625 333.976562 306.191406 328.296875 306.332031 321.3125 L 307.957031 237.960938 C 310.441406 238.253906 312.160156 238.253906 314.621094 237.96875 L 317.265625 321.324219 C 317.488281 328.335938 323.15625 333.828125 330.207031 333.828125 L 330.574219 333.824219 C 337.691406 333.597656 343.300781 327.625 343.078125 320.503906 L 339.707031 213.355469 C 339.847656 211.457031 339.972656 182.71875 340.007812 171.804688 L 352.359375 218.929688 C 353.851562 224.066406 358.65625 227.65625 364.042969 227.65625 C 365.722656 227.65625 367.375 227.308594 368.960938 226.625 C 374.269531 224.328125 377.324219 217.441406 375.621094 211.589844"/></g></svg>